<svg width="330" height="132" viewBox="0 0 330 132" fill="none" xmlns="http://www.w3.org/2000/svg">
<g clip-path="url(#clip0_17_4)">
<path d="M66 0H0V66H66V0Z" fill="#1D2C63"/>
<path d="M66 0V16.3792C54.7065 31.358 45.1657 47.8518 38.0735 66C25.7317 54.641 12.9641 45.0838 0 37.0743V0H66Z" fill="#439ED8"/>
</g>
<g clip-path="url(#clip1_17_4)">
<path d="M198 0H132V66H198V0Z" fill="#E8501C"/>
<path d="M198 0V66H132V26.2149C138.642 29.0158 145.226 32.267 151.721 36.0179C152.843 36.6648 152.662 36.5911 154.308 37.4838C155.209 36.3864 155.529 35.6493 155.996 35.0269C165.291 21.2193 176.945 9.66373 190.113 0H198Z" fill="#1D2C63"/>
</g>
<g clip-path="url(#clip2_17_4)">
<path d="M264 66H198V132H264V66Z" fill="#E8501C"/>
<path d="M255.082 66C255.082 72.65 252.387 78.6693 248.03 83.0344C243.665 87.3912 237.646 90.0856 230.996 90.0856C224.346 90.0856 218.327 87.3912 213.962 83.0344C209.605 78.6693 206.91 72.65 206.91 66H255.082Z" fill="#439ED8"/>
</g>
<g clip-path="url(#clip3_17_4)">
<path d="M264 66H330V0H264V66Z" fill="#439ED8"/>
<path d="M264 66V49.6208C275.293 34.642 284.834 18.1482 291.927 0C304.268 11.359 317.036 20.9162 330 28.9257V66H264Z" fill="#1D2C63"/>
</g>
<path d="M330 132V66H264V132H330Z" fill="#1D2C63"/>
<path d="M330 132H264V66H303.785C300.984 72.6418 297.733 79.2262 293.982 85.7206C293.335 86.8425 293.409 86.6624 292.516 88.3085C293.614 89.2093 294.351 89.5287 294.973 89.9955C308.781 99.2907 320.336 110.945 330 124.113V132Z" fill="#E8501C"/>
<path d="M198 132V66H132V132H198Z" fill="#1D2C63"/>
<path d="M198 132H132V66H171.785C168.984 72.6418 165.733 79.2262 161.982 85.7206C161.335 86.8425 161.409 86.6624 160.516 88.3085C161.614 89.2093 162.351 89.5287 162.973 89.9955C176.781 99.2907 188.336 110.945 198 124.113V132Z" fill="#E8501C"/>
<path d="M132 66H66V132H132V66Z" fill="#1D2C63"/>
<path d="M132 66V132H66V92.2149C72.6418 95.0158 79.2262 98.267 85.7206 102.018C86.8425 102.665 86.6624 102.591 88.3085 103.484C89.2093 102.386 89.5287 101.649 89.9955 101.027C99.2907 87.2193 110.945 75.6637 124.113 66H132Z" fill="#E8501C"/>
<defs>
<clipPath id="clip0_17_4">
<rect width="66" height="66" fill="white"/>
</clipPath>
<clipPath id="clip1_17_4">
<rect width="66" height="66" fill="white" transform="translate(132)"/>
</clipPath>
<clipPath id="clip2_17_4">
<rect width="66" height="66" fill="white" transform="translate(198 66)"/>
</clipPath>
<clipPath id="clip3_17_4">
<rect width="66" height="66" fill="white" transform="matrix(-1 0 0 -1 330 66)"/>
</clipPath>
</defs>
</svg>
