<svg width="136" height="32" viewBox="0 0 136 32" fill="none" xmlns="http://www.w3.org/2000/svg">
<g clip-path="url(#clip0_3_105)">
<path d="M9.01427 0.333038H14.402C14.7625 0.333038 15.0535 0.622827 15.0535 0.981819V6.34723C15.0535 6.70622 14.7625 6.99601 14.402 6.99601H9.01427C8.65379 6.99601 8.36279 6.70406 8.36279 6.34723V0.981819C8.36279 0.622827 8.65379 0.333038 9.01427 0.333038Z" fill="#2F2F2F"/>
<path d="M23.0817 6.34723C23.0817 6.70622 22.7908 6.99601 22.4303 6.99601H17.0404C16.6799 6.99601 16.3889 6.70622 16.3889 6.34723V0.981819C16.3889 0.622827 16.6799 0.333038 17.0404 0.333038H22.4303C22.7886 0.333038 23.0817 0.622827 23.0817 0.981819V6.34723Z" fill="#2F2F2F"/>
<path d="M23.0817 22.3397C23.0817 22.6987 22.7908 22.9884 22.4303 22.9884H17.0404C16.6799 22.9884 16.3889 22.6987 16.3889 22.3397V16.9743C16.3889 16.6153 16.6799 16.3255 17.0404 16.3255H22.4303C22.7886 16.3255 23.0817 16.6153 23.0817 16.9743V22.3397Z" fill="#2F2F2F"/>
<path d="M0.985949 8.32385H6.37583C6.73414 8.32385 7.0273 8.61364 7.0273 8.97263V14.338C7.0273 14.697 6.73631 14.9868 6.37583 14.9868H0.985949C0.625465 14.9868 0.334473 14.697 0.334473 14.338V8.97263C0.334473 8.6158 0.625465 8.32385 0.985949 8.32385Z" fill="#2F2F2F"/>
<path d="M9.01429 8.32385H14.4042C14.7647 8.32385 15.0557 8.61364 15.0557 8.97263V14.338C15.0557 14.697 14.7647 14.9868 14.4042 14.9868H9.01647C8.65598 14.9868 8.36499 14.6949 8.36499 14.338V8.97263C8.36499 8.6158 8.65598 8.32385 9.01647 8.32385H9.01429Z" fill="#2F2F2F"/>
<path d="M7.02513 22.3397C7.02513 22.6987 6.73197 22.9884 6.37366 22.9884H0.985949C0.625465 22.9884 0.334473 22.6987 0.334473 22.3397V16.9743C0.334473 16.6153 0.625465 16.3255 0.985949 16.3255H6.37366C6.73414 16.3255 7.02513 16.6153 7.02513 16.9743V22.3397Z" fill="#2F2F2F"/>
<path d="M15.0535 22.3397C15.0535 22.6987 14.7603 22.9884 14.402 22.9884H9.01427C8.65379 22.9884 8.36279 22.6987 8.36279 22.3397V16.9743C8.36279 16.6153 8.65379 16.3255 9.01427 16.3255H14.402C14.7625 16.3255 15.0535 16.6153 15.0535 16.9743V22.3397Z" fill="#2F2F2F"/>
<path d="M0.985949 24.3293H6.37583C6.73414 24.3293 7.0273 24.619 7.0273 24.978V30.3456C7.0273 30.7024 6.73631 30.9944 6.37583 30.9944H0.985949C0.625465 30.9944 0.334473 30.7046 0.334473 30.3456V24.9802C0.334473 24.6212 0.625465 24.3314 0.985949 24.3314V24.3293Z" fill="#2F2F2F"/>
<path d="M15.0535 30.3434C15.0535 30.7024 14.7603 30.9922 14.402 30.9922H9.01427C8.65379 30.9922 8.36279 30.7024 8.36279 30.3434V24.978C8.36279 24.619 8.65379 24.3293 9.01427 24.3293H14.402C14.7625 24.3293 15.0535 24.619 15.0535 24.978V30.3434Z" fill="#2F2F2F"/>
<path d="M7.35951 3.66561C7.35951 5.6898 5.71128 7.33122 3.68084 7.33122C1.65041 7.33122 0 5.6898 0 3.66561C0 1.64141 1.64606 0 3.67867 0C5.71127 0 7.35734 1.64141 7.35734 3.66561" fill="#2F2F2F"/>
<path d="M27.4118 17.6447H28.9015C29.603 17.6447 30.1089 17.7485 30.4217 17.9561C30.7344 18.1637 30.8907 18.4924 30.8907 18.9422C30.8907 19.2536 30.8039 19.5088 30.628 19.7121C30.4542 19.9154 30.2002 20.0451 29.8657 20.1057V20.1425C30.667 20.2787 31.0666 20.6982 31.0666 21.3989C31.0666 21.8682 30.9081 22.2337 30.5889 22.4975C30.2696 22.7614 29.8245 22.8911 29.2512 22.8911H27.4097V17.6468L27.4118 17.6447ZM28.0242 19.8894H29.034C29.4662 19.8894 29.7789 19.8224 29.97 19.6861C30.1611 19.5521 30.2544 19.3228 30.2544 19.0028C30.2544 18.7087 30.148 18.4967 29.9374 18.3648C29.7268 18.235 29.388 18.1702 28.9276 18.1702H28.0264V19.8894H28.0242ZM28.0242 20.4063V22.3699H29.1252C29.5509 22.3699 29.8722 22.2878 30.0872 22.1234C30.3022 21.959 30.4108 21.7039 30.4108 21.3535C30.4108 21.027 30.3001 20.7891 30.0807 20.6355C29.8614 20.482 29.5248 20.4063 29.0753 20.4063H28.0242Z" fill="#2F2F2F"/>
<path d="M34.5434 22.889L34.424 22.3288H34.3957C34.1981 22.5754 34.0005 22.7419 33.8051 22.8284C33.6096 22.9149 33.3642 22.9582 33.0711 22.9582C32.678 22.9582 32.3718 22.8587 32.1481 22.6576C31.9266 22.4564 31.8137 22.171 31.8137 21.799C31.8137 21.0053 32.4522 20.588 33.7291 20.5512L34.4001 20.5296V20.2852C34.4001 19.9759 34.3328 19.7489 34.2003 19.6018C34.0678 19.4547 33.8528 19.3812 33.5597 19.3812C33.2296 19.3812 32.8583 19.4807 32.4413 19.6818L32.2567 19.2255C32.4522 19.1195 32.665 19.0374 32.8973 18.9768C33.1297 18.9163 33.3621 18.886 33.5966 18.886C34.0678 18.886 34.4175 18.9898 34.6455 19.1974C34.8735 19.405 34.9864 19.7402 34.9864 20.1987V22.8825H34.5434V22.889ZM33.1905 22.4694C33.564 22.4694 33.8572 22.3678 34.07 22.1645C34.2828 21.9612 34.3892 21.6757 34.3892 21.3103V20.9556L33.7899 20.9815C33.3143 20.9988 32.969 21.0724 32.7605 21.2021C32.5499 21.3319 32.4435 21.5352 32.4435 21.8098C32.4435 22.0261 32.5086 22.1883 32.6411 22.3007C32.7714 22.4132 32.956 22.4694 33.1927 22.4694" fill="#2F2F2F"/>
<path d="M38.928 22.889V20.3458C38.928 20.0257 38.8541 19.7856 38.7086 19.6278C38.561 19.4699 38.333 19.3899 38.0202 19.3899C37.6033 19.3899 37.2993 19.5023 37.1082 19.7272C36.9171 19.9522 36.8215 20.3198 36.8215 20.8323V22.889H36.2222V17.3073H36.8215V18.9963C36.8215 19.1996 36.8128 19.3683 36.7933 19.5023H36.8302C36.9475 19.3142 37.1169 19.165 37.334 19.0547C37.5512 18.9465 37.8009 18.8925 38.0789 18.8925C38.5631 18.8925 38.9258 19.0071 39.1668 19.2342C39.4079 19.4634 39.5295 19.8246 39.5295 20.322V22.8868H38.9301L38.928 22.889Z" fill="#2F2F2F"/>
<path d="M40.7085 17.8912C40.7085 17.755 40.7411 17.6555 40.8084 17.5928C40.8757 17.53 40.9604 17.4976 41.0603 17.4976C41.1558 17.4976 41.2384 17.53 41.31 17.5949C41.3795 17.6598 41.4143 17.7593 41.4143 17.8934C41.4143 18.0274 41.3795 18.1269 41.31 18.194C41.2405 18.2588 41.1558 18.2934 41.0603 18.2934C40.9582 18.2934 40.8757 18.261 40.8084 18.194C40.7411 18.1291 40.7085 18.0296 40.7085 17.8934M41.3578 22.889H40.7584V18.9574H41.3578V22.889Z" fill="#2F2F2F"/>
<path d="M45.0605 22.889L44.9411 22.3288H44.9128C44.7152 22.5754 44.5176 22.7419 44.3222 22.8284C44.1267 22.9149 43.8813 22.9582 43.5882 22.9582C43.1951 22.9582 42.8889 22.8587 42.6652 22.6576C42.4437 22.4564 42.3308 22.171 42.3308 21.799C42.3308 21.0053 42.9693 20.588 44.2462 20.5512L44.9172 20.5296V20.2852C44.9172 19.9759 44.8499 19.7489 44.7174 19.6018C44.5849 19.4547 44.3699 19.3812 44.0768 19.3812C43.7467 19.3812 43.3753 19.4807 42.9584 19.6818L42.7738 19.2255C42.9693 19.1195 43.1821 19.0374 43.4144 18.9768C43.6468 18.9163 43.8792 18.886 44.1137 18.886C44.5849 18.886 44.9345 18.9898 45.1626 19.1974C45.3906 19.405 45.5035 19.7402 45.5035 20.1987V22.8825H45.0605V22.889ZM43.7076 22.4694C44.0811 22.4694 44.3743 22.3678 44.5871 22.1645C44.7999 21.9612 44.9063 21.6757 44.9063 21.3103V20.9556L44.307 20.9815C43.8314 20.9988 43.4861 21.0724 43.2776 21.2021C43.067 21.3319 42.9606 21.5352 42.9606 21.8098C42.9606 22.0261 43.0257 22.1883 43.1582 22.3007C43.2885 22.4132 43.4731 22.4694 43.7098 22.4694" fill="#2F2F2F"/>
<path d="M30.1525 25.4603C29.8615 25.4603 29.5988 25.51 29.3686 25.6095C29.1362 25.709 28.9386 25.8517 28.7757 26.0399C28.6129 26.228 28.4891 26.4551 28.4022 26.7189C28.3154 26.9849 28.2719 27.2834 28.2719 27.6164C28.2719 28.0576 28.3414 28.4382 28.4804 28.7626C28.6194 29.087 28.8257 29.3378 29.1015 29.5152C29.3773 29.6925 29.7226 29.7812 30.1352 29.7812C30.3719 29.7812 30.5934 29.7617 30.8018 29.7228C31.0103 29.6838 31.2123 29.6341 31.4099 29.5736V30.1056C31.2166 30.1769 31.0147 30.231 30.804 30.2656C30.5934 30.3002 30.3415 30.3175 30.0505 30.3175C29.5141 30.3175 29.0667 30.2072 28.7063 29.9844C28.3458 29.7639 28.0765 29.4503 27.8984 29.0459C27.7182 28.6415 27.6292 28.1635 27.6292 27.6142C27.6292 27.2163 27.6856 26.8552 27.7964 26.5243C27.9093 26.1956 28.0722 25.9123 28.2871 25.6722C28.5021 25.4322 28.7671 25.2484 29.0819 25.1186C29.3968 24.9888 29.7551 24.924 30.1634 24.924C30.4305 24.924 30.6889 24.9499 30.9365 25.004C31.184 25.0559 31.4077 25.1316 31.6075 25.2289L31.3621 25.7458C31.1927 25.6701 31.0081 25.603 30.8084 25.5468C30.6086 25.4906 30.3892 25.4625 30.1569 25.4625L30.1525 25.4603Z" fill="#2F2F2F"/>
<path d="M33.9419 26.2453C34.4132 26.2453 34.7628 26.3513 34.993 26.5611C35.221 26.7708 35.3361 27.1082 35.3361 27.5688V30.2418H34.8996L34.7845 29.6601H34.7563C34.6455 29.8028 34.5304 29.9239 34.4088 30.0212C34.2894 30.1185 34.1504 30.1921 33.9919 30.2397C33.8334 30.2894 33.6423 30.3132 33.4121 30.3132C33.171 30.3132 32.9582 30.2721 32.7715 30.1877C32.5847 30.1034 32.4392 29.978 32.3306 29.8071C32.2242 29.6363 32.1699 29.4222 32.1699 29.1605C32.1699 28.7691 32.3263 28.4663 32.639 28.2565C32.9517 28.0468 33.4273 27.9322 34.0679 27.9127L34.7498 27.8846V27.6445C34.7498 27.305 34.6759 27.0671 34.5304 26.9309C34.3828 26.7946 34.1765 26.7254 33.9094 26.7254C33.7031 26.7254 33.5054 26.7557 33.3165 26.8141C33.1298 26.8746 32.9517 26.9438 32.7823 27.026L32.5977 26.574C32.7758 26.4832 32.9799 26.4054 33.2123 26.3405C33.4425 26.2756 33.6857 26.2432 33.9419 26.2432V26.2453ZM34.7433 28.3063L34.1396 28.3322C33.6466 28.3517 33.2991 28.4317 33.0972 28.5723C32.8952 28.7129 32.7932 28.914 32.7932 29.1713C32.7932 29.3962 32.8627 29.5628 32.9995 29.6709C33.1363 29.779 33.3187 29.8331 33.5445 29.8331C33.8963 29.8331 34.183 29.7358 34.4067 29.5433C34.6303 29.3487 34.7433 29.0589 34.7433 28.6718V28.3084V28.3063Z" fill="#2F2F2F"/>
<path d="M40.865 26.2388C41.2993 26.2388 41.6294 26.3513 41.8509 26.5784C42.0724 26.8033 42.1831 27.1666 42.1831 27.6683V30.244H41.5903V27.6964C41.5903 27.3785 41.5208 27.1406 41.3818 26.9806C41.2428 26.8206 41.0387 26.7427 40.7673 26.7427C40.3851 26.7427 40.1071 26.853 39.9334 27.0736C39.7596 27.2942 39.6728 27.6186 39.6728 28.0468V30.2461H39.0778V27.6986C39.0778 27.4867 39.0474 27.3093 38.9866 27.1666C38.9258 27.026 38.8345 26.92 38.7129 26.8487C38.5913 26.7773 38.4371 26.7427 38.2526 26.7427C37.9898 26.7427 37.7792 26.7968 37.6206 26.9049C37.4621 27.013 37.347 27.1731 37.2753 27.3828C37.2037 27.5948 37.1689 27.8543 37.1689 28.1635V30.244H36.5696V26.3124H37.0538L37.1451 26.8681H37.1776C37.258 26.7319 37.3579 26.6173 37.4773 26.5243C37.5967 26.4313 37.7314 26.3599 37.8812 26.3124C38.0311 26.2648 38.1896 26.241 38.3568 26.241C38.6565 26.241 38.9106 26.2972 39.1125 26.4075C39.3166 26.5178 39.4621 26.6887 39.5555 26.9157H39.5881C39.7184 26.6887 39.8965 26.52 40.1223 26.4075C40.3481 26.2951 40.5957 26.241 40.865 26.241V26.2388Z" fill="#2F2F2F"/>
<path d="M45.2712 26.2388C45.7641 26.2388 46.1572 26.4075 46.4504 26.7449C46.7435 27.0822 46.8912 27.5883 46.8912 28.2652C46.8912 28.7128 46.8239 29.087 46.6892 29.3919C46.5546 29.6947 46.3657 29.9261 46.1203 30.0796C45.8771 30.2353 45.5882 30.3132 45.256 30.3132C45.0475 30.3132 44.8629 30.2851 44.7044 30.231C44.5459 30.1769 44.4091 30.1012 44.2961 30.0082C44.1832 29.9152 44.0898 29.8136 44.0138 29.7033H43.9704C43.9769 29.7963 43.9856 29.9088 43.9965 30.0407C44.0073 30.1726 44.0117 30.2872 44.0117 30.3845V32H43.408V26.3102H43.9031L43.9834 26.8919H44.0117C44.0877 26.773 44.1832 26.6627 44.294 26.5632C44.4047 26.4637 44.5394 26.3859 44.7001 26.3253C44.8608 26.2669 45.0497 26.2367 45.269 26.2367L45.2712 26.2388ZM45.1669 26.7406C44.8933 26.7406 44.6718 26.7925 44.5046 26.8984C44.3374 27.0044 44.2158 27.1601 44.1376 27.3699C44.0616 27.5796 44.0203 27.8413 44.016 28.1571V28.2717C44.016 28.6047 44.0529 28.8859 44.1268 29.1151C44.2006 29.3443 44.3222 29.5195 44.4916 29.6384C44.661 29.7574 44.889 29.8179 45.1756 29.8179C45.421 29.8179 45.6251 29.7531 45.7902 29.6211C45.9552 29.4892 46.0768 29.3054 46.1572 29.0697C46.2375 28.8339 46.2788 28.5636 46.2788 28.2565C46.2788 27.7916 46.1876 27.4239 46.0073 27.1493C45.8271 26.8746 45.547 26.7384 45.1713 26.7384L45.1669 26.7406Z" fill="#2F2F2F"/>
<path d="M51.2016 26.3102V30.2418H50.7108L50.624 29.6904H50.5914C50.5089 29.8266 50.4046 29.9412 50.2743 30.0342C50.144 30.1272 49.9986 30.1964 49.8357 30.244C49.6728 30.2916 49.5013 30.3132 49.3188 30.3132C49.0061 30.3132 48.7434 30.2634 48.5327 30.1618C48.3199 30.0623 48.1614 29.9066 48.055 29.6947C47.9486 29.4849 47.8943 29.2146 47.8943 28.8837V26.308H48.5002V28.8404C48.5002 29.1692 48.574 29.4135 48.7238 29.5736C48.8737 29.7358 49.0995 29.8158 49.4057 29.8158C49.7119 29.8158 49.9334 29.7617 50.1071 29.6514C50.2809 29.5411 50.4068 29.3789 50.485 29.1648C50.561 28.9507 50.6001 28.6891 50.6001 28.3777V26.308H51.2038L51.2016 26.3102Z" fill="#2F2F2F"/>
<path d="M55.028 29.167C55.028 29.4179 54.965 29.6298 54.839 29.8006C54.7131 29.9715 54.5329 30.0991 54.2983 30.1856C54.0638 30.2721 53.7837 30.3153 53.4601 30.3153C53.1843 30.3153 52.9433 30.2937 52.7413 30.2505C52.5393 30.2072 52.3613 30.1466 52.2114 30.0666V29.5173C52.3721 29.5973 52.5654 29.6687 52.7891 29.7336C53.0127 29.7985 53.2408 29.8309 53.4753 29.8309C53.8162 29.8309 54.0638 29.7768 54.218 29.6666C54.3722 29.5563 54.4482 29.407 54.4482 29.2189C54.4482 29.1108 54.4178 29.0156 54.357 28.9334C54.2962 28.8513 54.1919 28.7712 54.0486 28.6934C53.9031 28.6155 53.7055 28.5312 53.4492 28.436C53.1973 28.3409 52.978 28.2457 52.7934 28.1506C52.6088 28.0554 52.4677 27.9408 52.3678 27.8046C52.2679 27.6683 52.2179 27.491 52.2179 27.2726C52.2179 26.9395 52.3526 26.6843 52.624 26.507C52.8955 26.3297 53.2494 26.2388 53.6903 26.2388C53.9292 26.2388 54.1507 26.2626 54.3591 26.308C54.5676 26.3556 54.7609 26.4183 54.9411 26.4962L54.7392 26.9741C54.5763 26.9049 54.4004 26.8465 54.2158 26.7989C54.0312 26.7514 53.8423 26.7276 53.649 26.7276C53.3732 26.7276 53.1604 26.773 53.0127 26.8638C52.8651 26.9547 52.7912 27.0801 52.7912 27.238C52.7912 27.3591 52.826 27.4607 52.8933 27.5386C52.9606 27.6164 53.0714 27.6921 53.2234 27.7613C53.3754 27.8305 53.5752 27.9127 53.8227 28.0057C54.0703 28.0965 54.2853 28.1895 54.4655 28.2868C54.6458 28.3841 54.7848 28.5009 54.8825 28.6393C54.9802 28.7777 55.028 28.9529 55.028 29.1692V29.167Z" fill="#2F2F2F"/>
<path d="M60.9783 28.8469C60.9783 29.1583 60.9001 29.4222 60.746 29.6406C60.5918 29.859 60.3746 30.0256 60.0945 30.1402C59.8143 30.2548 59.4864 30.3132 59.1086 30.3132C58.9088 30.3132 58.7199 30.3045 58.5418 30.2851C58.3637 30.2656 58.2009 30.2375 58.051 30.2029C57.9012 30.1683 57.7709 30.1229 57.658 30.071V29.4849C57.8382 29.5584 58.0575 29.6276 58.3181 29.6903C58.5787 29.7531 58.8502 29.7855 59.1346 29.7855C59.3996 29.7855 59.6232 29.7509 59.8057 29.6795C59.9881 29.6082 60.1271 29.5065 60.2226 29.3746C60.3182 29.2427 60.3659 29.0827 60.3659 28.8967C60.3659 28.7107 60.3268 28.568 60.2465 28.4469C60.1661 28.3257 60.0358 28.2155 59.8513 28.116C59.6667 28.0165 59.4169 27.9105 59.0999 27.7981C58.8762 27.7202 58.6786 27.6316 58.5071 27.5386C58.3355 27.4434 58.1922 27.3374 58.0771 27.2163C57.962 27.0974 57.8751 26.959 57.8165 26.8011C57.7578 26.6432 57.7274 26.4637 57.7274 26.2605C57.7274 25.9815 57.7991 25.7414 57.9424 25.5403C58.0858 25.3414 58.2834 25.1878 58.5374 25.0818C58.7915 24.9759 59.0825 24.9218 59.4126 24.9218C59.6949 24.9218 59.9555 24.9478 60.1944 25.0018C60.4332 25.0559 60.6526 25.1251 60.8524 25.2138L60.6613 25.7371C60.4702 25.6571 60.2704 25.5922 60.0576 25.5403C59.8447 25.4884 59.6254 25.4603 59.3996 25.4603C59.1737 25.4603 58.9826 25.4927 58.8284 25.5598C58.6743 25.6247 58.5548 25.7177 58.4723 25.8388C58.3898 25.9577 58.3507 26.1004 58.3507 26.2648C58.3507 26.4486 58.3898 26.6022 58.468 26.7233C58.5461 26.8444 58.6721 26.9525 58.8436 27.0477C59.0152 27.1428 59.2432 27.2401 59.5277 27.3439C59.8382 27.4564 60.101 27.5753 60.3182 27.7008C60.5353 27.8262 60.7004 27.9797 60.8133 28.1592C60.9262 28.3387 60.9827 28.568 60.9827 28.8469H60.9783Z" fill="#2F2F2F"/>
<path d="M63.4429 26.2453C63.9141 26.2453 64.2638 26.3513 64.494 26.5611C64.722 26.7708 64.8371 27.1082 64.8371 27.5688V30.2418H64.4006L64.2855 29.6601H64.2573C64.1465 29.8028 64.0314 29.9239 63.9098 30.0212C63.7904 30.1185 63.6514 30.1921 63.4929 30.2397C63.3343 30.2894 63.1432 30.3132 62.913 30.3132C62.672 30.3132 62.4592 30.2721 62.2724 30.1877C62.0857 30.1034 61.9402 29.978 61.8316 29.8071C61.7252 29.6363 61.6709 29.4222 61.6709 29.1605C61.6709 28.7691 61.8273 28.4663 62.14 28.2565C62.4527 28.0468 62.9283 27.9322 63.5689 27.9127L64.2507 27.8846V27.6445C64.2507 27.305 64.1769 27.0671 64.0314 26.9309C63.8837 26.7946 63.6774 26.7254 63.4103 26.7254C63.204 26.7254 63.0064 26.7557 62.8175 26.8141C62.6307 26.8746 62.4527 26.9438 62.2833 27.026L62.0987 26.574C62.2768 26.4832 62.4809 26.4054 62.7133 26.3405C62.9435 26.2756 63.1867 26.2432 63.4429 26.2432V26.2453ZM64.2442 28.3063L63.6405 28.3322C63.1476 28.3517 62.8001 28.4317 62.5982 28.5723C62.3962 28.7129 62.2941 28.914 62.2941 29.1713C62.2941 29.3962 62.3636 29.5628 62.5004 29.6709C62.6373 29.779 62.8197 29.8331 63.0455 29.8331C63.3973 29.8331 63.684 29.7358 63.9076 29.5433C64.1313 29.3487 64.2442 29.0589 64.2442 28.6718V28.3084V28.3063Z" fill="#2F2F2F"/>
<path d="M67.9446 26.2388C68.4137 26.2388 68.7698 26.3534 69.0087 26.5805C69.2498 26.8098 69.3692 27.1752 69.3692 27.6791V30.2418H68.7764V27.7202C68.7764 27.3915 68.7004 27.1471 68.5505 26.9849C68.4007 26.8227 68.1705 26.7406 67.8599 26.7406C67.4213 26.7406 67.1129 26.8638 66.937 27.1104C66.7589 27.3569 66.6699 27.7137 66.6699 28.183V30.2418H66.0706V26.3102H66.5548L66.646 26.8768H66.6786C66.7633 26.7384 66.8697 26.6216 67 26.5265C67.1303 26.4313 67.2758 26.3599 67.4365 26.3102C67.5972 26.2605 67.7666 26.2367 67.9446 26.2367V26.2388Z" fill="#2F2F2F"/>
<path d="M71.8818 29.8266C71.9796 29.8266 72.0816 29.8179 72.1859 29.8006C72.2901 29.7833 72.3726 29.7639 72.4378 29.7401V30.2029C72.3683 30.2332 72.2706 30.2613 72.1468 30.2829C72.023 30.3045 71.9014 30.3153 71.7841 30.3153C71.5756 30.3153 71.3845 30.2786 71.213 30.205C71.0414 30.1315 70.9046 30.0083 70.8026 29.8331C70.7005 29.6579 70.6484 29.4179 70.6484 29.1086V26.7773H70.0859V26.4875L70.6527 26.254L70.8916 25.3997H71.2521V26.3102H72.4095V26.7773H71.2521V29.0913C71.2521 29.3378 71.3085 29.5217 71.4236 29.6449C71.5387 29.766 71.6907 29.8288 71.8797 29.8288L71.8818 29.8266Z" fill="#2F2F2F"/>
<path d="M76.6484 28.2695C76.6484 28.5917 76.6072 28.8815 76.5225 29.1346C76.4378 29.3876 76.3162 29.6017 76.1577 29.7769C75.9991 29.952 75.808 30.0839 75.5822 30.1769C75.3563 30.2699 75.1023 30.3153 74.8178 30.3153C74.5529 30.3153 74.3118 30.2699 74.0903 30.1769C73.8688 30.0839 73.6799 29.952 73.5192 29.7769C73.3585 29.6017 73.2347 29.3876 73.1478 29.1346C73.061 28.8815 73.0154 28.5939 73.0154 28.2695C73.0154 27.8392 73.0892 27.4715 73.2347 27.1709C73.3802 26.8703 73.5909 26.6368 73.8645 26.4789C74.1381 26.321 74.4638 26.241 74.8417 26.241C75.2195 26.241 75.5192 26.321 75.7885 26.481C76.0599 26.6411 76.2706 26.8725 76.4204 27.1752C76.5703 27.478 76.6463 27.8435 76.6463 28.2717L76.6484 28.2695ZM73.6386 28.2695C73.6386 28.5853 73.6799 28.8599 73.7646 29.0913C73.8493 29.3227 73.9796 29.5022 74.1533 29.6298C74.327 29.7574 74.555 29.8201 74.8308 29.8201C75.1066 29.8201 75.3303 29.7574 75.5084 29.6298C75.6843 29.5022 75.8167 29.3227 75.8992 29.0913C75.9839 28.8599 76.0252 28.5853 76.0252 28.2695C76.0252 27.9538 75.9839 27.6856 75.8992 27.4564C75.8146 27.2271 75.6843 27.052 75.5105 26.9265C75.3368 26.8011 75.1066 26.7406 74.8287 26.7406C74.4182 26.7406 74.1164 26.8746 73.9253 27.145C73.7342 27.4153 73.6386 27.7894 73.6386 28.2674V28.2695Z" fill="#2F2F2F"/>
<path d="M83.0046 30.2418L82.3553 28.5766H80.2401L79.593 30.2418H78.9719L81.0371 24.9737H81.5887L83.6387 30.2418H83.0046ZM82.1707 28.036L81.5539 26.3816C81.5387 26.3383 81.517 26.2669 81.4845 26.1696C81.4519 26.0723 81.4193 25.9707 81.3846 25.8647C81.3498 25.7587 81.3238 25.6744 81.302 25.6095C81.2782 25.7068 81.2521 25.8041 81.2239 25.9015C81.1956 25.9988 81.1696 26.0874 81.1435 26.1696C81.1175 26.2518 81.0936 26.3232 81.074 26.3794L80.4464 28.0338H82.1707V28.036Z" fill="#2F2F2F"/>
<path d="M86.1512 26.2388C86.6202 26.2388 86.9742 26.3534 87.2153 26.5805C87.4563 26.8098 87.5757 27.1752 87.5757 27.6791V30.2418H86.9829V27.7202C86.9829 27.3915 86.9069 27.1471 86.7571 26.9849C86.6072 26.8227 86.377 26.7406 86.0665 26.7406C85.6278 26.7406 85.3216 26.8638 85.1436 27.1104C84.9655 27.3569 84.8765 27.7137 84.8765 28.183V30.2418H84.2771V26.3102H84.7614L84.8526 26.8768H84.8851C84.9698 26.7384 85.0762 26.6216 85.2065 26.5265C85.3368 26.4313 85.4823 26.3599 85.643 26.3102C85.8037 26.2605 85.9731 26.2367 86.1512 26.2367V26.2388Z" fill="#2F2F2F"/>
<path d="M90.0906 29.8266C90.1883 29.8266 90.2904 29.8179 90.3946 29.8006C90.4988 29.7833 90.5814 29.7639 90.6465 29.7401V30.2029C90.577 30.2332 90.4793 30.2613 90.3555 30.2829C90.2317 30.3045 90.1101 30.3153 89.9929 30.3153C89.7844 30.3153 89.5933 30.2786 89.4217 30.205C89.2502 30.1315 89.1134 30.0083 89.0113 29.8331C88.9092 29.6579 88.8571 29.4179 88.8571 29.1086V26.7773H88.2947V26.4875L88.8615 26.254L89.1003 25.3997H89.4608V26.3102H90.6183V26.7773H89.4608V29.0913C89.4608 29.3378 89.5173 29.5217 89.6324 29.6449C89.7475 29.766 89.8995 29.8288 90.0884 29.8288L90.0906 29.8266Z" fill="#2F2F2F"/>
<path d="M94.8572 28.2695C94.8572 28.5917 94.8159 28.8815 94.7312 29.1346C94.6465 29.3876 94.5249 29.6017 94.3664 29.7768C94.2079 29.952 94.0168 30.0839 93.7909 30.1769C93.5651 30.2699 93.311 30.3153 93.0265 30.3153C92.7616 30.3153 92.5206 30.2699 92.2991 30.1769C92.0776 30.0839 91.8886 29.952 91.7279 29.7768C91.5672 29.6017 91.4435 29.3876 91.3566 29.1346C91.2697 28.8815 91.2241 28.5939 91.2241 28.2695C91.2241 27.8392 91.298 27.4715 91.4435 27.1709C91.5889 26.8703 91.7996 26.6368 92.0732 26.4789C92.3468 26.321 92.6726 26.241 93.0504 26.241C93.4283 26.241 93.728 26.321 93.9972 26.481C94.2687 26.6411 94.4793 26.8725 94.6292 27.1752C94.779 27.478 94.855 27.8435 94.855 28.2717L94.8572 28.2695ZM93.3523 24.6169C93.4131 24.725 93.4978 24.8461 93.6042 24.9802C93.7128 25.1143 93.8279 25.2484 93.9473 25.376C94.0667 25.5057 94.1753 25.616 94.2687 25.709V25.7869H93.8431C93.7128 25.7025 93.5803 25.6009 93.4435 25.4776C93.3067 25.3565 93.172 25.2289 93.0417 25.097C92.9114 25.2289 92.7812 25.3543 92.6465 25.4754C92.5119 25.5965 92.3816 25.7003 92.2513 25.7847H91.8409V25.7068C91.9321 25.6117 92.0363 25.4992 92.1536 25.3695C92.2708 25.2397 92.3816 25.1078 92.4902 24.9737C92.5987 24.8396 92.6813 24.7185 92.7442 24.6104H93.3545L93.3523 24.6169ZM91.8474 28.2695C91.8474 28.5853 91.8886 28.8599 91.9733 29.0913C92.058 29.3227 92.1883 29.5022 92.362 29.6298C92.5358 29.7574 92.7638 29.8201 93.0396 29.8201C93.3154 29.8201 93.539 29.7574 93.7171 29.6298C93.893 29.5022 94.0255 29.3227 94.108 29.0913C94.1927 28.8599 94.2339 28.5853 94.2339 28.2695C94.2339 27.9538 94.1927 27.6856 94.108 27.4564C94.0233 27.2271 93.893 27.052 93.7193 26.9265C93.5456 26.8011 93.3154 26.7406 93.0374 26.7406C92.627 26.7406 92.3251 26.8746 92.134 27.145C91.9429 27.4153 91.8474 27.7894 91.8474 28.2674V28.2695Z" fill="#2F2F2F"/>
<path d="M97.7671 26.2388C98.2362 26.2388 98.5902 26.3534 98.8312 26.5805C99.0723 26.8098 99.1917 27.1752 99.1917 27.6791V30.2418H98.5989V27.7202C98.5989 27.3915 98.5229 27.1471 98.373 26.9849C98.2232 26.8227 97.993 26.7406 97.6825 26.7406C97.2438 26.7406 96.9376 26.8638 96.7595 27.1104C96.5815 27.3569 96.4924 27.7137 96.4924 28.183V30.2418H95.8931V26.3102H96.3773L96.4685 26.8768H96.5011C96.5858 26.7384 96.6922 26.6216 96.8225 26.5265C96.9528 26.4313 97.0983 26.3599 97.259 26.3102C97.4197 26.2605 97.5891 26.2367 97.7671 26.2367V26.2388Z" fill="#2F2F2F"/>
<path d="M100.734 24.8396C100.831 24.8396 100.916 24.8721 100.988 24.9348C101.059 24.9975 101.094 25.097 101.094 25.2311C101.094 25.3651 101.059 25.4603 100.988 25.5252C100.916 25.5901 100.831 25.6225 100.734 25.6225C100.629 25.6225 100.545 25.5901 100.475 25.5252C100.406 25.4603 100.373 25.363 100.373 25.2311C100.373 25.0991 100.408 24.9975 100.475 24.9348C100.542 24.8721 100.629 24.8396 100.734 24.8396ZM101.025 26.3102V30.2418H100.425V26.3102H101.025Z" fill="#2F2F2F"/>
<path d="M105.702 28.2695C105.702 28.5917 105.661 28.8815 105.576 29.1346C105.492 29.3876 105.37 29.6017 105.211 29.7769C105.053 29.952 104.862 30.0839 104.636 30.1769C104.41 30.2699 104.156 30.3153 103.872 30.3153C103.607 30.3153 103.366 30.2699 103.144 30.1769C102.923 30.0839 102.734 29.952 102.573 29.7769C102.412 29.6017 102.288 29.3876 102.202 29.1346C102.115 28.8815 102.069 28.5939 102.069 28.2695C102.069 27.8392 102.143 27.4715 102.288 27.1709C102.434 26.8703 102.645 26.6368 102.918 26.4789C103.192 26.321 103.518 26.241 103.895 26.241C104.273 26.241 104.573 26.321 104.842 26.481C105.114 26.6411 105.324 26.8725 105.474 27.1752C105.624 27.478 105.7 27.8435 105.7 28.2717L105.702 28.2695ZM102.692 28.2695C102.692 28.5853 102.734 28.8599 102.818 29.0913C102.903 29.3227 103.033 29.5022 103.207 29.6298C103.381 29.7574 103.609 29.8201 103.885 29.8201C104.16 29.8201 104.384 29.7574 104.562 29.6298C104.738 29.5022 104.87 29.3227 104.953 29.0913C105.038 28.8599 105.079 28.5853 105.079 28.2695C105.079 27.9538 105.038 27.6856 104.953 27.4564C104.868 27.2271 104.738 27.052 104.564 26.9265C104.391 26.8011 104.16 26.7406 103.882 26.7406C103.472 26.7406 103.17 26.8746 102.979 27.145C102.788 27.4153 102.692 27.7894 102.692 28.2674V28.2695Z" fill="#2F2F2F"/>
<path d="M110.067 30.3153C109.567 30.3153 109.17 30.1445 108.877 29.805C108.584 29.4654 108.438 28.9616 108.438 28.2911C108.438 27.6207 108.588 27.1039 108.886 26.7579C109.183 26.4118 109.58 26.2388 110.078 26.2388C110.286 26.2388 110.471 26.267 110.627 26.321C110.784 26.3751 110.918 26.4486 111.031 26.5416C111.144 26.6346 111.24 26.7384 111.316 26.8552H111.359C111.35 26.7817 111.339 26.68 111.331 26.5503C111.322 26.4205 111.316 26.3167 111.316 26.2345V24.6601H111.915V30.244H111.431L111.339 29.6839H111.313C111.24 29.8006 111.144 29.9066 111.031 30.0039C110.918 30.1012 110.781 30.1748 110.623 30.231C110.464 30.2872 110.28 30.3153 110.065 30.3153H110.067ZM110.16 29.8201C110.584 29.8201 110.883 29.7012 111.059 29.4611C111.235 29.2211 111.322 28.8664 111.322 28.395V28.2868C111.322 27.7873 111.24 27.4023 111.07 27.1342C110.903 26.866 110.599 26.7319 110.158 26.7319C109.789 26.7319 109.515 26.8725 109.331 27.1536C109.148 27.4348 109.057 27.8175 109.057 28.3041C109.057 28.7907 109.148 29.1605 109.329 29.4243C109.511 29.6882 109.787 29.8201 110.156 29.8201H110.16Z" fill="#2F2F2F"/>
<path d="M114.703 26.2388C115.04 26.2388 115.329 26.3124 115.57 26.4616C115.811 26.6108 115.995 26.8184 116.121 27.0844C116.249 27.3504 116.312 27.6618 116.312 28.0186V28.3885H113.581C113.587 28.8491 113.704 29.2016 113.928 29.4438C114.152 29.686 114.467 29.8071 114.873 29.8071C115.122 29.8071 115.344 29.7855 115.537 29.7401C115.73 29.6947 115.93 29.6276 116.137 29.539V30.0623C115.937 30.151 115.739 30.2159 115.544 30.2569C115.348 30.298 115.116 30.3175 114.849 30.3175C114.469 30.3175 114.136 30.2396 113.854 30.0861C113.572 29.9326 113.353 29.7055 113.196 29.407C113.04 29.1086 112.962 28.741 112.962 28.3084C112.962 27.8759 113.033 27.5191 113.177 27.2098C113.32 26.9006 113.522 26.6605 113.783 26.494C114.043 26.3275 114.351 26.2432 114.705 26.2432L114.703 26.2388ZM114.697 26.7276C114.378 26.7276 114.121 26.8314 113.932 27.039C113.741 27.2466 113.628 27.5386 113.594 27.9105H115.687C115.685 27.677 115.648 27.4693 115.576 27.292C115.505 27.1147 115.398 26.9763 115.253 26.8768C115.107 26.7773 114.923 26.7276 114.697 26.7276Z" fill="#2F2F2F"/>
<path d="M118.58 31.6237C118.46 31.6237 118.354 31.6151 118.263 31.5978C118.171 31.5805 118.093 31.5588 118.028 31.5286V31.0074C118.104 31.0312 118.189 31.0506 118.278 31.0636C118.367 31.0766 118.462 31.0831 118.567 31.0831C118.701 31.0831 118.825 31.0571 118.938 31.0052C119.051 30.9533 119.142 30.8625 119.209 30.737C119.277 30.6094 119.311 30.4364 119.311 30.2137V24.9975H119.928V30.1683C119.928 30.497 119.874 30.7673 119.763 30.9836C119.655 31.1998 119.498 31.3599 119.298 31.4658C119.099 31.5718 118.858 31.6259 118.582 31.6259L118.58 31.6237Z" fill="#2F2F2F"/>
<path d="M122.76 26.2388C123.097 26.2388 123.385 26.3124 123.626 26.4616C123.867 26.6108 124.052 26.8184 124.178 27.0844C124.306 27.3504 124.369 27.6618 124.369 28.0186V28.3885H121.637C121.644 28.8491 121.761 29.2016 121.985 29.4438C122.208 29.686 122.523 29.8071 122.929 29.8071C123.179 29.8071 123.401 29.7855 123.594 29.7401C123.787 29.6947 123.987 29.6276 124.193 29.539V30.0623C123.993 30.151 123.796 30.2159 123.6 30.2569C123.405 30.298 123.173 30.3175 122.905 30.3175C122.525 30.3175 122.193 30.2396 121.911 30.0861C121.629 29.9326 121.409 29.7055 121.253 29.407C121.096 29.1086 121.018 28.741 121.018 28.3084C121.018 27.8759 121.09 27.5191 121.233 27.2098C121.377 26.9006 121.579 26.6605 121.839 26.494C122.1 26.3275 122.408 26.2432 122.762 26.2432L122.76 26.2388ZM122.751 26.7276C122.432 26.7276 122.176 26.8314 121.987 27.039C121.796 27.2466 121.683 27.5386 121.648 27.9105H123.741C123.739 27.677 123.702 27.4693 123.631 27.292C123.559 27.1147 123.453 26.9763 123.307 26.8768C123.162 26.7773 122.977 26.7276 122.751 26.7276Z" fill="#2F2F2F"/>
<path d="M127.946 29.167C127.946 29.4179 127.883 29.6298 127.757 29.8006C127.631 29.9715 127.451 30.0991 127.216 30.1856C126.982 30.2721 126.701 30.3153 126.378 30.3153C126.102 30.3153 125.861 30.2937 125.659 30.2505C125.457 30.2072 125.279 30.1466 125.129 30.0666V29.5173C125.29 29.5973 125.483 29.6687 125.707 29.7336C125.93 29.7985 126.158 29.8309 126.393 29.8309C126.734 29.8309 126.982 29.7768 127.136 29.6666C127.29 29.5563 127.366 29.407 127.366 29.2189C127.366 29.1108 127.335 29.0156 127.275 28.9334C127.214 28.8513 127.11 28.7712 126.966 28.6934C126.823 28.6155 126.623 28.5312 126.367 28.436C126.115 28.3409 125.896 28.2457 125.711 28.1506C125.527 28.0554 125.385 27.9408 125.285 27.8046C125.186 27.6683 125.136 27.491 125.136 27.2726C125.136 26.9395 125.27 26.6843 125.542 26.507C125.813 26.3297 126.167 26.2388 126.608 26.2388C126.847 26.2388 127.068 26.2626 127.277 26.308C127.485 26.3556 127.679 26.4183 127.859 26.4962L127.657 26.9741C127.494 26.9049 127.318 26.8465 127.134 26.7989C126.949 26.7514 126.76 26.7276 126.567 26.7276C126.291 26.7276 126.078 26.773 125.93 26.8638C125.783 26.9547 125.709 27.0801 125.709 27.238C125.709 27.3591 125.744 27.4607 125.811 27.5386C125.878 27.6164 125.989 27.6921 126.141 27.7613C126.293 27.8305 126.493 27.9127 126.74 28.0057C126.988 28.0965 127.203 28.1895 127.383 28.2868C127.564 28.3841 127.702 28.5009 127.8 28.6393C127.898 28.7777 127.946 28.9529 127.946 29.1692V29.167Z" fill="#2F2F2F"/>
<path d="M132.176 26.3102V30.2418H131.685L131.598 29.6904H131.566C131.483 29.8266 131.379 29.9412 131.249 30.0342C131.118 30.1272 130.973 30.1964 130.81 30.244C130.647 30.2916 130.476 30.3132 130.291 30.3132C129.978 30.3132 129.716 30.2634 129.505 30.1618C129.294 30.0623 129.134 29.9066 129.027 29.6947C128.921 29.4849 128.866 29.2146 128.866 28.8837V26.308H129.472V28.8404C129.472 29.1692 129.546 29.4135 129.696 29.5736C129.846 29.7358 130.072 29.8158 130.378 29.8158C130.684 29.8158 130.906 29.7617 131.079 29.6514C131.253 29.5411 131.379 29.3789 131.457 29.1648C131.535 28.9507 131.572 28.6891 131.572 28.3777V26.308H132.176V26.3102Z" fill="#2F2F2F"/>
<path d="M136 29.167C136 29.4179 135.937 29.6298 135.811 29.8006C135.685 29.9715 135.505 30.0991 135.27 30.1856C135.036 30.2721 134.756 30.3153 134.432 30.3153C134.156 30.3153 133.915 30.2937 133.713 30.2505C133.512 30.2072 133.333 30.1466 133.184 30.0666V29.5173C133.344 29.5973 133.538 29.6687 133.761 29.7336C133.985 29.7985 134.213 29.8309 134.447 29.8309C134.788 29.8309 135.036 29.7768 135.19 29.6666C135.344 29.5563 135.42 29.407 135.42 29.2189C135.42 29.1108 135.39 29.0156 135.329 28.9334C135.268 28.8513 135.164 28.7712 135.021 28.6934C134.877 28.6155 134.678 28.5312 134.421 28.436C134.169 28.3409 133.95 28.2457 133.766 28.1506C133.581 28.0554 133.44 27.9408 133.34 27.8046C133.24 27.6683 133.19 27.491 133.19 27.2726C133.19 26.9395 133.325 26.6843 133.596 26.507C133.868 26.3297 134.222 26.2388 134.662 26.2388C134.901 26.2388 135.123 26.2626 135.331 26.308C135.54 26.3556 135.733 26.4183 135.913 26.4962L135.711 26.9741C135.548 26.9049 135.373 26.8465 135.188 26.7989C135.003 26.7514 134.814 26.7276 134.621 26.7276C134.345 26.7276 134.133 26.773 133.985 26.8638C133.837 26.9547 133.763 27.0801 133.763 27.238C133.763 27.3591 133.798 27.4607 133.865 27.5386C133.933 27.6164 134.044 27.6921 134.196 27.7613C134.348 27.8305 134.547 27.9127 134.795 28.0057C135.042 28.0965 135.257 28.1895 135.438 28.2868C135.618 28.3841 135.757 28.5009 135.855 28.6393C135.952 28.7777 136 28.9529 136 29.1692V29.167Z" fill="#2F2F2F"/>
<path d="M28.7259 8.62662H27.3447V15.1036H28.7259V8.62662Z" fill="#2F2F2F"/>
<path d="M36.1656 15.1058H34.4087L31.5748 10.2053H31.5357C31.5922 11.0704 31.6204 11.6889 31.6204 12.0565V15.1058H30.387V8.62878H32.1286L34.9582 13.4795H34.9886C34.9451 12.6382 34.9212 12.0435 34.9212 11.6954V8.62878H36.1656V15.1058Z" fill="#2F2F2F"/>
<path d="M41.6685 13.3065C41.6685 13.8925 41.4557 14.3532 41.0344 14.6884C40.611 15.0257 40.0225 15.1944 39.2667 15.1944C38.5718 15.1944 37.9573 15.0647 37.4209 14.8052V13.5292C37.8617 13.7239 38.2331 13.8623 38.5371 13.9423C38.8411 14.0223 39.1212 14.0612 39.3732 14.0612C39.6772 14.0612 39.9095 14.0028 40.0702 13.8882C40.2331 13.7736 40.3135 13.6006 40.3135 13.3735C40.3135 13.2459 40.2765 13.1335 40.207 13.034C40.1354 12.9345 40.0311 12.8394 39.8922 12.7485C39.7532 12.6577 39.473 12.5106 39.0474 12.3095C38.65 12.1235 38.3503 11.944 38.1527 11.7732C37.9529 11.6023 37.7944 11.4034 37.675 11.1763C37.5555 10.9492 37.4969 10.6832 37.4969 10.3783C37.4969 9.80523 37.6923 9.35541 38.0832 9.02669C38.4741 8.69798 39.0148 8.53578 39.7032 8.53578C40.042 8.53578 40.3656 8.57471 40.6718 8.65472C40.9801 8.73474 41.3015 8.8472 41.6359 8.99209L41.1908 10.0604C40.8433 9.91985 40.5545 9.82037 40.3287 9.76414C40.1006 9.70791 39.877 9.6798 39.6576 9.6798C39.3949 9.6798 39.1951 9.74035 39.0561 9.86146C38.9171 9.98256 38.8476 10.1404 38.8476 10.3351C38.8476 10.4562 38.8759 10.5621 38.9323 10.6508C38.9888 10.7416 39.0778 10.8281 39.2016 10.9125C39.3254 10.9968 39.6164 11.1482 40.0767 11.3666C40.6848 11.6564 41.1039 11.9462 41.3276 12.2382C41.5534 12.5279 41.6663 12.8848 41.6663 13.3086" fill="#2F2F2F"/>
<path d="M45.3819 15.1058H44.0008V9.77063H42.231V8.62662H47.1518V9.77063H45.3819V15.1058Z" fill="#2F2F2F"/>
<path d="M49.5535 8.62662H48.1724V15.1036H49.5535V8.62662Z" fill="#2F2F2F"/>
<path d="M53.7249 15.1058H52.3438V9.77063H50.574V8.62662H55.4948V9.77063H53.7249V15.1058Z" fill="#2F2F2F"/>
<path d="M61.8208 8.62662V12.8177C61.8208 13.2957 61.7122 13.7152 61.4972 14.0764C61.2822 14.4375 60.9695 14.7122 60.5634 14.9046C60.1574 15.0971 59.6753 15.1923 59.1193 15.1923C58.2811 15.1923 57.6318 14.9782 57.1671 14.5521C56.7045 14.1261 56.4722 13.5422 56.4722 12.8004V8.62662H57.849V12.5928C57.849 13.0924 57.9489 13.4579 58.153 13.6914C58.3549 13.925 58.6894 14.0418 59.1563 14.0418C59.6231 14.0418 59.9359 13.925 60.1378 13.6893C60.3419 13.4535 60.444 13.0859 60.444 12.5842V8.62662H61.8208Z" fill="#2F2F2F"/>
<path d="M65.9469 15.1058H64.5657V9.77063H62.7959V8.62662H67.7167V9.77063H65.9469V15.1058Z" fill="#2F2F2F"/>
<path d="M74.6527 11.8575C74.6527 12.9302 74.3856 13.7541 73.8514 14.3294C73.3172 14.9046 72.5506 15.1923 71.5517 15.1923C70.5527 15.1923 69.7862 14.9046 69.252 14.3294C68.7178 13.7541 68.4485 12.9259 68.4485 11.8489C68.4485 10.7719 68.7156 9.94796 69.252 9.37919C69.7884 8.81043 70.5571 8.52713 71.5582 8.52713C72.5593 8.52713 73.3259 8.81476 73.8557 9.38568C74.3856 9.95877 74.6505 10.7827 74.6505 11.8575M69.8969 11.8575C69.8969 12.582 70.0359 13.127 70.3117 13.4925C70.5875 13.8579 71.0023 14.0418 71.5517 14.0418C72.6548 14.0418 73.2043 13.313 73.2043 11.8575C73.2043 10.4021 72.657 9.66898 71.5604 9.66898C71.011 9.66898 70.5962 9.8528 70.316 10.2204C70.0359 10.5881 69.8969 11.1331 69.8969 11.8575Z" fill="#2F2F2F"/>
<path d="M79.7688 15.1058H78.4094V8.62662H82.1445V9.75333H79.7688V11.4229H81.9795V12.5452H79.7688V15.1058Z" fill="#2F2F2F"/>
<path d="M87.1915 15.1058H83.439V8.62662H87.1915V9.75333H84.8201V11.1763H87.0264V12.3009H84.8201V13.9704H87.1915V15.1058Z" fill="#2F2F2F"/>
<path d="M93.9732 11.8035C93.9732 12.8696 93.6691 13.6871 93.0568 14.2537C92.4465 14.8203 91.5649 15.1036 90.4118 15.1036H88.5659V8.62662H90.6116C91.6756 8.62662 92.5008 8.90559 93.0893 9.46354C93.6778 10.0215 93.971 10.8022 93.971 11.8035M92.5399 11.8402C92.5399 10.4497 91.921 9.75333 90.6854 9.75333H89.9492V13.9704H90.5421C91.8732 13.9704 92.5399 13.2611 92.5399 11.8402Z" fill="#2F2F2F"/>
<path d="M99.096 15.1058H95.3435V8.62662H99.096V9.75333H96.7246V11.1763H98.931V12.3009H96.7246V13.9704H99.096V15.1058Z" fill="#2F2F2F"/>
<path d="M101.856 12.6188V15.1036H100.475V8.62662H102.373C103.259 8.62662 103.913 8.78665 104.338 9.10671C104.764 9.42678 104.975 9.91337 104.975 10.5665C104.975 10.9471 104.87 11.2866 104.658 11.5829C104.447 11.8792 104.147 12.1127 103.763 12.2814C104.744 13.7368 105.383 14.6776 105.68 15.1036H104.147L102.592 12.6188H101.856ZM101.856 11.5029H102.301C102.738 11.5029 103.061 11.4315 103.268 11.2866C103.476 11.1417 103.578 10.9146 103.578 10.6054C103.578 10.2961 103.472 10.0799 103.259 9.95013C103.046 9.82037 102.718 9.7555 102.271 9.7555H101.852V11.505L101.856 11.5029Z" fill="#2F2F2F"/>
<path d="M110.506 15.1058L110.034 13.5638H107.659L107.185 15.1058H105.696L107.995 8.60066H109.685L111.993 15.1058H110.503H110.506ZM109.704 12.4112C109.268 11.0141 109.02 10.2248 108.966 10.041C108.912 9.85713 108.87 9.71224 108.849 9.60627C108.751 9.98473 108.471 10.919 108.006 12.4112H109.704Z" fill="#2F2F2F"/>
<path d="M112.833 15.1058V8.62662H114.215V13.9704H116.857V15.1058H112.833Z" fill="#2F2F2F"/>
</g>
<defs>
<clipPath id="clip0_3_105">
<rect width="136" height="32" fill="white"/>
</clipPath>
</defs>
</svg>
