<svg width="101" height="40" viewBox="0 0 101 40" fill="none" xmlns="http://www.w3.org/2000/svg">
<path d="M81.0784 22.4916L80.3557 25.0151H80.9355L81.16 24.2061H82.1782L82.4026 25.0151H82.9825L82.2568 22.4916H81.0784ZM81.2991 23.7056L81.5946 22.6353H81.7405L82.0398 23.7056H81.2999H81.2991Z" fill="#2F2F2F"/>
<path d="M85.5014 24.5109L85.6084 24.8729H85.4663L84.7114 22.4916H83.5869V25.0159H84.16V22.9966L84.05 22.6353H84.1959L84.9463 25.0159H86.0745V22.4916H85.5014V24.5109Z" fill="#2F2F2F"/>
<path d="M88.6742 22.6241C88.4805 22.5119 88.2545 22.4555 87.9964 22.4555C87.7383 22.4555 87.5116 22.5119 87.3171 22.6241C87.1226 22.7362 86.9737 22.8905 86.8704 23.0877C86.7672 23.2849 86.7156 23.5061 86.7156 23.7515C86.7156 23.9968 86.7672 24.2189 86.8704 24.4153C86.9737 24.6125 87.1226 24.7675 87.3171 24.8804C87.5116 24.9941 87.7383 25.0505 87.9964 25.0505C88.2545 25.0505 88.4812 24.9941 88.6742 24.8804C88.868 24.7668 89.0161 24.6117 89.1194 24.4153C89.2226 24.2181 89.2742 23.9968 89.2742 23.7515C89.2742 23.5061 89.2226 23.2841 89.1194 23.0877C89.0161 22.8905 88.868 22.7362 88.6742 22.6241ZM88.5246 24.3355C88.4049 24.4763 88.2283 24.547 87.9957 24.547C87.763 24.547 87.5872 24.4763 87.4675 24.3355C87.3478 24.1948 87.2879 24.0006 87.2879 23.7522C87.2879 23.5039 87.3478 23.3097 87.4675 23.1705C87.5872 23.0312 87.7637 22.9612 87.9957 22.9612C88.2276 22.9612 88.4042 23.0312 88.5246 23.1705C88.6443 23.3097 88.7042 23.5039 88.7042 23.7522C88.7042 24.0006 88.6443 24.1948 88.5246 24.3355Z" fill="#2F2F2F"/>
<path d="M91.5867 23.6755C91.4424 23.61 91.262 23.5415 91.0458 23.4692L90.9531 23.4369C90.8154 23.3887 90.7151 23.3518 90.6523 23.324C90.5895 23.2969 90.5476 23.2698 90.5259 23.2435C90.5049 23.2171 90.4937 23.184 90.4937 23.1434C90.4937 23.0816 90.5296 23.0357 90.6022 23.0056C90.6748 22.9755 90.7757 22.9605 90.9067 22.9605C91.078 22.9605 91.2112 22.9898 91.3069 23.0485C91.4027 23.1072 91.4513 23.2081 91.4513 23.3511H92.0207C92.0207 23.1795 91.9803 23.0259 91.8995 22.8912C91.8187 22.7565 91.6952 22.6504 91.5276 22.5729C91.3608 22.4953 91.1536 22.4562 90.9067 22.4562C90.5842 22.4562 90.3388 22.5134 90.172 22.6278C90.0044 22.7422 89.9206 22.907 89.9206 23.1215C89.9206 23.2766 89.961 23.403 90.0418 23.5009C90.1226 23.5987 90.2251 23.677 90.3493 23.7357C90.4742 23.7944 90.6508 23.8614 90.8812 23.9381L90.9882 23.9743C91.1259 24.0224 91.2306 24.0601 91.3032 24.0887C91.3758 24.1173 91.4356 24.1511 91.4828 24.1903C91.5299 24.2294 91.5538 24.2761 91.5538 24.328C91.5538 24.3995 91.5164 24.4537 91.4416 24.4906C91.3668 24.5274 91.2418 24.5463 91.066 24.5463C90.8902 24.5463 90.7608 24.5305 90.662 24.4996C90.564 24.4687 90.4922 24.4168 90.4466 24.3438C90.4017 24.2708 90.3792 24.1699 90.3792 24.0412H89.8062C89.8062 24.3732 89.9042 24.6245 90.1002 24.7946C90.2962 24.9655 90.6119 25.0505 91.0488 25.0505C91.4192 25.0505 91.6907 24.9858 91.8636 24.8571C92.0364 24.7284 92.1232 24.5493 92.1232 24.3205C92.1232 24.1699 92.07 24.0412 91.9631 23.9336C91.8561 23.826 91.7304 23.7394 91.586 23.674L91.5867 23.6755Z" fill="#2F2F2F"/>
<path d="M85.6555 11.4701C79.2798 11.4701 73.9799 16.1853 73.0156 22.3305L63.0136 22.3403L73.4113 14.5182L73.4465 14.4911C76.6216 11.9344 77.1371 7.2561 74.5956 4.06194C73.3642 2.51454 71.6083 1.54214 69.6504 1.32388C67.6917 1.10562 65.7667 1.66708 64.2286 2.90591C62.6904 4.14398 61.7238 5.91116 61.5068 7.88079C61.2898 9.85042 61.8479 11.7877 63.0794 13.3351L65.1817 11.6424C64.3999 10.6602 64.0453 9.43045 64.1837 8.17958C64.3213 6.92871 64.9356 5.80729 65.9119 5.02079C66.8882 4.2343 68.1099 3.87755 69.3541 4.01679C70.5975 4.15527 71.7123 4.77318 72.4941 5.75536C74.1034 7.77768 73.7817 10.7378 71.7804 12.3642L58.5007 22.3441L58.5022 25.0528L72.8771 25.0392C73.237 31.8167 78.8302 37.219 85.6555 37.219C92.4809 37.219 98.4533 31.4434 98.4533 24.3446C98.4533 17.2458 92.7121 11.4701 85.6555 11.4701ZM85.6555 34.5096C80.3152 34.5096 75.9318 30.3197 75.5765 25.0355L79.0785 25.0325L79.077 22.3237L75.7508 22.3268C76.6837 17.6845 80.7694 14.178 85.6555 14.178C91.2277 14.178 95.7607 18.7382 95.7607 24.3438C95.7607 29.9494 91.2277 34.5096 85.6555 34.5096Z" fill="#2F2F2F"/>
<path d="M13.2042 34.3395L12.4456 35.1132V35.1501L12.985 35.1523L13.4024 34.7135L13.8221 35.1523L14.3675 35.1501V35.1184L13.6044 34.3395H13.2042Z" fill="#2F2F2F"/>
<path d="M13.0439 32.6694C13.2556 32.6694 13.4464 32.6273 13.6154 32.5422C13.7853 32.4587 13.9214 32.3397 14.0232 32.187L13.7157 31.8919C13.5503 32.1042 13.3386 32.2095 13.0768 32.2095C12.8912 32.2095 12.7364 32.1486 12.6137 32.0267C12.4917 31.9047 12.4214 31.7391 12.4034 31.5284H14.0621V31.2966C14.0621 30.8902 13.9686 30.5763 13.78 30.3543C13.5915 30.1315 13.3252 30.0201 12.9788 30.0201C12.761 30.0201 12.5643 30.0766 12.3885 30.188C12.2112 30.3001 12.0742 30.4567 11.977 30.6576C11.8782 30.8578 11.8289 31.0859 11.8289 31.341V31.4125C11.8289 31.7933 11.9426 32.0982 12.1663 32.3277C12.3907 32.5565 12.684 32.6709 13.0446 32.6709L13.0439 32.6694ZM12.5972 30.6456C12.693 30.5349 12.8194 30.48 12.9758 30.48C13.1321 30.48 13.2578 30.5282 13.3476 30.6283C13.4366 30.7276 13.4868 30.8729 13.4995 31.0655V31.1077H12.4132C12.4393 30.9105 12.5007 30.7562 12.598 30.6456H12.5972Z" fill="#2F2F2F"/>
<path d="M20.1259 18.2437H26.5226V16.2741H20.1259V11.4016H27.4607V9.15273H17.366V25.1401H20.1259V18.2437Z" fill="#2F2F2F"/>
<path d="M17.7999 31.3011C17.6727 31.2326 17.4977 31.1739 17.274 31.1235C17.0495 31.0738 16.9014 31.0257 16.8281 30.976C16.754 30.9278 16.7173 30.8593 16.7173 30.7705C16.7173 30.6727 16.7577 30.5967 16.8363 30.5372C16.9148 30.4792 17.0166 30.4506 17.143 30.4506C17.2777 30.4506 17.3854 30.4868 17.4662 30.5605C17.547 30.6328 17.5882 30.7254 17.5882 30.8352H18.1583C18.1583 30.5944 18.064 30.398 17.8777 30.2467C17.6907 30.0962 17.4453 30.0201 17.143 30.0201C16.858 30.0201 16.6231 30.0947 16.4383 30.2422C16.2535 30.3904 16.1615 30.5748 16.1615 30.7954C16.1615 31.058 16.3036 31.259 16.5879 31.3967C16.7173 31.4599 16.8789 31.5119 17.0742 31.5525C17.268 31.5939 17.4064 31.6413 17.4902 31.6947C17.574 31.7482 17.6159 31.8257 17.6159 31.9273C17.6159 32.0214 17.577 32.0966 17.4984 32.1531C17.4206 32.2103 17.3069 32.2389 17.1557 32.2389C17.0046 32.2389 16.8759 32.2028 16.7824 32.1298C16.6889 32.056 16.638 31.9521 16.6305 31.8167H16.0762C16.0762 31.9687 16.1226 32.1109 16.2123 32.2434C16.3036 32.3751 16.4308 32.479 16.5931 32.555C16.7555 32.631 16.9418 32.6686 17.149 32.6686C17.4558 32.6686 17.7041 32.5979 17.8934 32.4549C18.082 32.3119 18.177 32.1268 18.177 31.8964C18.177 31.7595 18.1455 31.6428 18.0842 31.5472C18.0229 31.4501 17.9278 31.3689 17.7999 31.3004V31.3011Z" fill="#2F2F2F"/>
<path d="M15.8346 30.5899L15.8368 30.0533C15.7837 30.0314 15.7164 30.0201 15.6348 30.0201C15.3902 30.0201 15.2002 30.1315 15.0625 30.3536L15.0476 30.0691H14.5044V32.6212H15.0745V30.8736C15.165 30.6719 15.3408 30.5718 15.6019 30.5718C15.6812 30.5718 15.7583 30.5786 15.8339 30.5906L15.8346 30.5899Z" fill="#2F2F2F"/>
<path d="M16.9343 35.5618C16.57 35.5618 16.2767 35.6987 16.0515 35.9704L16.0328 35.6197H15.3909V38.6648H16.0717V36.4965C16.2064 36.2466 16.4098 36.121 16.6852 36.121C16.873 36.121 17.0091 36.1669 17.0922 36.2602C17.1752 36.3535 17.2156 36.4973 17.2156 36.6899V38.6641H17.8964V36.6516C17.8852 35.9253 17.5635 35.5618 16.9336 35.5618H16.9343Z" fill="#2F2F2F"/>
<path d="M14.4101 35.9584C14.155 35.6942 13.8235 35.5618 13.4143 35.5618C13.1382 35.5618 12.8943 35.6265 12.6819 35.7552C12.4686 35.8839 12.3033 36.0675 12.1858 36.3069C12.0684 36.5462 12.0093 36.8149 12.0093 37.1137V37.1475C12.0093 37.6247 12.138 38.0055 12.3938 38.293C12.6512 38.5798 12.9938 38.722 13.4203 38.722C13.7008 38.722 13.947 38.6573 14.161 38.5279C14.3749 38.3984 14.538 38.2148 14.654 37.9784C14.7684 37.7414 14.8261 37.4734 14.8261 37.1731L14.8231 37.0121C14.8021 36.5748 14.6645 36.2241 14.4101 35.9584ZM13.9567 37.9047C13.8288 38.0846 13.65 38.1749 13.4203 38.1749C13.1906 38.1749 13.0118 38.0861 12.8839 37.9092C12.7544 37.7308 12.6893 37.4862 12.6893 37.1724C12.6893 36.8194 12.7559 36.5545 12.8861 36.3768C13.0163 36.1985 13.1928 36.1104 13.4143 36.1104C13.6358 36.1104 13.8198 36.2007 13.9507 36.3799C14.0831 36.5605 14.1482 36.8051 14.1482 37.1129C14.1482 37.4614 14.0839 37.7248 13.956 37.9054L13.9567 37.9047Z" fill="#2F2F2F"/>
<path d="M19.2798 30.0683H18.7097V32.6205H19.2798V30.0683Z" fill="#2F2F2F"/>
<path d="M5.25712 36.495C5.38805 36.3091 5.45464 36.0796 5.45464 35.8056C5.45464 35.4037 5.3267 35.0959 5.07084 34.8836C4.81497 34.6706 4.45212 34.5645 3.98228 34.5645H2.54883V38.6648H3.25732V37.0903H4.04587L4.86285 38.6648H5.62147V38.6287L4.70649 36.924C4.94066 36.8247 5.1247 36.6817 5.25638 36.4958L5.25712 36.495ZM3.98378 36.5131H3.25732V35.141H4.00472C4.25087 35.1455 4.43566 35.2065 4.5591 35.3269C4.68404 35.4466 4.74614 35.6174 4.74614 35.8357C4.74614 36.054 4.67881 36.2105 4.54414 36.3317C4.41022 36.4529 4.22244 36.5131 3.98378 36.5131Z" fill="#2F2F2F"/>
<path d="M19.324 36.3513C19.4437 36.1902 19.6136 36.1097 19.8343 36.1097C20.0056 36.1097 20.147 36.1669 20.2577 36.279C20.3692 36.3927 20.429 36.5357 20.435 36.711H21.0762C21.0665 36.3671 20.9468 36.0901 20.7201 35.8794C20.4934 35.6671 20.1994 35.5618 19.8395 35.5618C19.4138 35.5618 19.0794 35.701 18.8325 35.9802C18.5856 36.2587 18.4622 36.6312 18.4622 37.0941V37.1649C18.4622 37.6518 18.5871 38.0326 18.8347 38.3089C19.0824 38.5851 19.419 38.7228 19.8417 38.7228C20.0609 38.7228 20.2644 38.6746 20.453 38.5798C20.6408 38.4835 20.7911 38.354 20.9004 38.1892C21.0103 38.0251 21.0695 37.8475 21.0762 37.6578H20.435C20.429 37.8038 20.3677 37.9273 20.2562 38.0259C20.1447 38.1245 20.0026 38.1741 19.8335 38.1741C19.6091 38.1741 19.4385 38.0928 19.3195 37.9295C19.2013 37.7677 19.1422 37.5216 19.1422 37.1912V37.0813C19.1437 36.7547 19.2036 36.5116 19.3233 36.3513H19.324Z" fill="#2F2F2F"/>
<path d="M4.14916 23.8997C5.21902 24.8774 6.66369 25.3651 8.48169 25.3651C10.2997 25.3651 11.7182 24.8699 12.7985 23.8772C13.8788 22.8837 14.419 21.5388 14.419 19.8416V9.15273H11.6695V20.0147C11.6695 22.2665 10.6079 23.3947 8.48094 23.3947C7.43428 23.3947 6.64199 23.1117 6.10482 22.548C5.5669 21.9843 5.29608 21.1685 5.29608 20.1012V9.15273H2.54663V19.8295C2.54663 21.5651 3.08006 22.9213 4.14842 23.899L4.14916 23.8997Z" fill="#2F2F2F"/>
<path d="M6.24027 30.8029C6.35324 30.5944 6.52457 30.4898 6.75425 30.4898C6.91136 30.4898 7.02583 30.5282 7.0954 30.6057C7.16498 30.684 7.1994 30.8036 7.1994 30.9662V32.6205H7.76949V30.9338C7.75976 30.3242 7.49043 30.0194 6.96223 30.0194C6.65699 30.0194 6.41085 30.1338 6.22232 30.3618L6.2066 30.0683H5.66943V32.6205H6.23952V30.8021L6.24027 30.8029Z" fill="#2F2F2F"/>
<path d="M9.93015 30.0683H9.33911L10.2264 32.6212H10.7209L11.6008 30.0683H11.0112L10.4748 31.8942L9.93015 30.0683Z" fill="#2F2F2F"/>
<path d="M2.54883 29.184V31.4795C2.54883 31.852 2.66255 32.1441 2.89298 32.354C3.12266 32.5648 3.43389 32.6694 3.82367 32.6694C4.21346 32.6694 4.5202 32.5633 4.75212 32.3495C4.98405 32.1358 5.10076 31.8468 5.10076 31.4817V29.184H4.50972V31.4637C4.50972 31.9484 4.28154 32.1907 3.82367 32.1907C3.59848 32.1907 3.42865 32.1305 3.31269 32.0086C3.19747 31.8882 3.13912 31.7128 3.13912 31.4832V29.1847H2.54883V29.184Z" fill="#2F2F2F"/>
<path d="M7.31694 35.5617C7.05659 35.5617 6.82242 35.6287 6.61219 35.7612C6.40046 35.8952 6.23737 36.0811 6.12065 36.3204C6.00245 36.5597 5.94409 36.8314 5.94409 37.1355V37.2205C5.94409 37.6751 6.07951 38.0379 6.3466 38.3119C6.61368 38.5851 6.96382 38.7213 7.39475 38.7213C7.64688 38.7213 7.87282 38.6716 8.07557 38.57C8.27831 38.4699 8.44066 38.3292 8.56186 38.147L8.19527 37.7948C7.99925 38.0484 7.74488 38.1734 7.43291 38.1734C7.21145 38.1734 7.02666 38.1004 6.88003 37.9544C6.73414 37.8091 6.65109 37.6112 6.6294 37.3605H8.60825V37.0836C8.60825 36.5996 8.49677 36.2248 8.27083 35.9584C8.04639 35.6935 7.72768 35.561 7.31545 35.561L7.31694 35.5617ZM7.93791 36.86H6.64286C6.67428 36.6237 6.7476 36.4401 6.86282 36.3084C6.97728 36.1774 7.12841 36.1104 7.3147 36.1104C7.50099 36.1104 7.65137 36.1691 7.75685 36.2873C7.86234 36.4062 7.92444 36.58 7.93791 36.8096V36.8608V36.86Z" fill="#2F2F2F"/>
<path d="M8.67327 29.0921C8.57002 29.0921 8.49072 29.1207 8.43461 29.1795C8.37924 29.2382 8.35156 29.3119 8.35156 29.4015C8.35156 29.491 8.37924 29.561 8.43461 29.619C8.49147 29.6762 8.57002 29.7055 8.67327 29.7055C8.77651 29.7055 8.85581 29.6762 8.91267 29.619C8.96953 29.561 8.99721 29.4888 8.99721 29.4015C8.99721 29.3142 8.96953 29.2382 8.91267 29.1795C8.85581 29.1207 8.77651 29.0921 8.67327 29.0921Z" fill="#2F2F2F"/>
<path d="M9.87041 36.3513C9.98937 36.1902 10.1599 36.1097 10.3806 36.1097C10.5512 36.1097 10.6934 36.1669 10.8041 36.279C10.9156 36.3927 10.9747 36.5357 10.9814 36.711H11.6226C11.6121 36.3671 11.4931 36.0901 11.2665 35.8794C11.0398 35.6671 10.7457 35.5618 10.3859 35.5618C9.96019 35.5618 9.62427 35.701 9.37813 35.9802C9.13124 36.2587 9.00854 36.6312 9.00854 37.0941V37.1649C9.00854 37.6518 9.13274 38.0326 9.38112 38.3089C9.62876 38.5851 9.96543 38.7228 10.3881 38.7228C10.6073 38.7228 10.8108 38.6746 10.9986 38.5798C11.1872 38.4835 11.3375 38.354 11.4475 38.1892C11.5575 38.0251 11.6166 37.8475 11.6233 37.6578H10.9822C10.9754 37.8038 10.9156 37.9273 10.8041 38.0259C10.6919 38.1245 10.5505 38.1741 10.3821 38.1741C10.157 38.1741 9.98712 38.0928 9.86817 37.9295C9.74996 37.7677 9.69011 37.5216 9.69011 37.1912V37.0813C9.69235 36.7547 9.7522 36.5116 9.87191 36.3513H9.87041Z" fill="#2F2F2F"/>
<path d="M26.1075 30.0201C25.8023 30.0201 25.5599 30.1398 25.3773 30.3784C25.1948 30.617 25.105 30.9331 25.105 31.3259C25.105 31.7391 25.197 32.0673 25.3803 32.3081C25.5643 32.549 25.8045 32.6694 26.1023 32.6694C26.4 32.6694 26.6147 32.5655 26.7846 32.3578L26.813 32.6212H27.3285V28.9951H26.7584V30.3039C26.593 30.115 26.3753 30.0201 26.106 30.0201H26.1075ZM26.7599 31.8867C26.6514 32.0966 26.4816 32.2013 26.2482 32.2013C26.0649 32.2013 25.9242 32.129 25.8247 31.983C25.7252 31.837 25.6758 31.6345 25.6758 31.3756C25.6758 31.0791 25.7267 30.8586 25.8269 30.7103C25.9272 30.562 26.0686 30.4898 26.2534 30.4898C26.4861 30.4898 26.6551 30.5921 26.7606 30.7969V31.8867H26.7599Z" fill="#2F2F2F"/>
<path d="M8.95754 30.0683H8.38745V32.6205H8.95754V30.0683Z" fill="#2F2F2F"/>
<path d="M19.2349 29.1802C19.1781 29.1215 19.0988 29.0929 18.9955 29.0929C18.8923 29.0929 18.813 29.1215 18.7569 29.1802C18.7015 29.2389 18.6738 29.3127 18.6738 29.4022C18.6738 29.4918 18.7015 29.5618 18.7569 29.6197C18.813 29.6769 18.8923 29.7063 18.9955 29.7063C19.0988 29.7063 19.1788 29.6769 19.2349 29.6197C19.2911 29.5618 19.3187 29.4895 19.3187 29.4022C19.3187 29.3149 19.2911 29.2389 19.2349 29.1802Z" fill="#2F2F2F"/>
<path d="M24.7121 32.5806C24.647 32.4436 24.6155 32.2615 24.6155 32.0312V30.8789C24.6103 30.6064 24.5205 30.3957 24.3432 30.2459C24.1674 30.0947 23.9302 30.0201 23.6325 30.0201C23.4372 30.0201 23.2592 30.0548 23.1013 30.124C22.9434 30.1925 22.8162 30.2881 22.725 30.4108C22.633 30.5319 22.5866 30.6629 22.5866 30.8029H23.1567C23.1567 30.702 23.1986 30.62 23.2816 30.5545C23.3646 30.4898 23.4709 30.4567 23.6003 30.4567C23.7507 30.4567 23.8629 30.4958 23.9355 30.5756C24.0088 30.6554 24.0455 30.7615 24.0455 30.8932V31.061H23.6968C23.3227 31.061 23.0347 31.1333 22.8342 31.2793C22.633 31.4245 22.5334 31.6345 22.5334 31.9062C22.5334 32.1222 22.6128 32.3029 22.7744 32.4504C22.936 32.5971 23.1432 32.6709 23.3983 32.6709C23.6534 32.6709 23.8831 32.5761 24.0649 32.3849C24.0829 32.4955 24.1046 32.5746 24.1307 32.6227H24.7121V32.5821V32.5806ZM24.0455 31.9047C23.9961 31.9981 23.9205 32.0726 23.8218 32.1275C23.7223 32.1824 23.6168 32.2103 23.5038 32.2103C23.3826 32.2103 23.2853 32.1772 23.2128 32.1117C23.1394 32.0462 23.1028 31.9589 23.1028 31.8483C23.1028 31.7121 23.1559 31.6074 23.2629 31.5329C23.3699 31.4584 23.5285 31.4215 23.7387 31.4215H24.0462V31.904L24.0455 31.9047Z" fill="#2F2F2F"/>
<path d="M50.3505 30.3039C50.1844 30.115 49.9667 30.0201 49.6973 30.0201C49.3921 30.0201 49.1504 30.1398 48.9679 30.3784C48.7861 30.617 48.6956 30.9331 48.6956 31.3259C48.6956 31.7391 48.7876 32.0673 48.9709 32.3081C49.1549 32.549 49.3951 32.6694 49.6921 32.6694C49.9891 32.6694 50.2046 32.5655 50.3752 32.3578L50.4036 32.6212H50.9198V28.9951H50.3497V30.3039H50.3505ZM50.3505 31.8867C50.242 32.0966 50.0714 32.2013 49.8387 32.2013C49.6562 32.2013 49.5148 32.129 49.4153 31.983C49.3158 31.837 49.2664 31.6345 49.2664 31.3756C49.2664 31.0791 49.3173 30.8586 49.4175 30.7103C49.5178 30.5628 49.6592 30.4898 49.844 30.4898C50.0766 30.4898 50.2465 30.5921 50.3512 30.7969V31.8867H50.3505Z" fill="#2F2F2F"/>
<path d="M43.4943 30.0533C43.4412 30.0314 43.3739 30.0201 43.2923 30.0201C43.0477 30.0201 42.8577 30.1315 42.72 30.3536L42.705 30.0691H42.1611V32.6212H42.732V30.8736C42.8225 30.6719 42.9983 30.5718 43.2594 30.5718C43.3387 30.5718 43.4158 30.5786 43.4913 30.5906L43.4936 30.054L43.4943 30.0533Z" fill="#2F2F2F"/>
<path d="M37.7612 36.5868C37.7552 36.2617 37.6482 36.0103 37.4365 35.8312C37.2263 35.6521 36.9435 35.5625 36.5889 35.5625C36.3562 35.5625 36.1437 35.6039 35.9552 35.6867C35.7659 35.7672 35.6155 35.8824 35.5055 36.0276C35.3956 36.1729 35.341 36.3287 35.341 36.4958H36.021C36.021 36.3761 36.0711 36.2767 36.1692 36.1992C36.2687 36.1217 36.3958 36.0818 36.55 36.0818C36.7288 36.0818 36.8627 36.1285 36.9502 36.2248C37.0378 36.3196 37.0811 36.4461 37.0811 36.6034V36.8028H36.6644C36.2185 36.8028 35.8759 36.8894 35.6357 37.0632C35.3956 37.2363 35.2766 37.487 35.2766 37.8114C35.2766 38.0688 35.3716 38.2848 35.5639 38.4601C35.7577 38.6355 36.0046 38.7228 36.3098 38.7228C36.615 38.7228 36.8881 38.6099 37.1043 38.3818C37.1268 38.5128 37.1522 38.6069 37.1829 38.6648H37.8757V38.6167C37.7994 38.4534 37.7612 38.2351 37.7612 37.9611V36.5861V36.5868ZM37.0819 37.8106C37.0228 37.922 36.933 38.0101 36.8141 38.0755C36.6951 38.1425 36.5694 38.1749 36.434 38.1749C36.2889 38.1749 36.1729 38.135 36.0861 38.0575C35.9993 37.9799 35.9559 37.8753 35.9559 37.7429C35.9559 37.5803 36.0203 37.4561 36.1467 37.3673C36.2739 37.2785 36.4624 37.2341 36.7146 37.2341H37.0811V37.8099L37.0819 37.8106Z" fill="#2F2F2F"/>
<path d="M42.185 36.5289C42.3788 36.4461 42.5269 36.3302 42.6272 36.1796C42.7282 36.0291 42.7783 35.8605 42.7783 35.6724C42.7783 35.3051 42.6579 35.0289 42.4177 34.843C42.1775 34.6571 41.8259 34.5638 41.3651 34.5638H39.9683V38.6641H41.4556C41.912 38.6641 42.2636 38.561 42.509 38.354C42.7551 38.1478 42.8778 37.852 42.8778 37.4666C42.8778 37.2333 42.818 37.0346 42.6975 36.8676C42.5771 36.702 42.4072 36.5876 42.1865 36.5289H42.185ZM40.676 35.141H41.3651C41.6082 35.141 41.787 35.1862 41.9015 35.2757C42.0159 35.3668 42.0728 35.5113 42.0728 35.713C42.0728 35.8974 42.0115 36.0389 41.8865 36.139C41.7631 36.2391 41.5902 36.2895 41.371 36.2895H40.676V35.1418V35.141ZM41.9838 37.9273C41.8581 38.0379 41.6853 38.0928 41.4631 38.0928H40.676V36.8134H41.5214C41.9546 36.8231 42.1708 37.0399 42.1708 37.4659C42.1708 37.6631 42.108 37.8166 41.983 37.9273H41.9838Z" fill="#2F2F2F"/>
<path d="M38.4166 30.3039C38.2513 30.115 38.0328 30.0201 37.7635 30.0201C37.4582 30.0201 37.2158 30.1398 37.0333 30.3784C36.8522 30.617 36.7617 30.9331 36.7617 31.3259C36.7617 31.7391 36.8537 32.0673 37.0363 32.3081C37.2211 32.549 37.4612 32.6694 37.7583 32.6694C38.0553 32.6694 38.2707 32.5655 38.4413 32.3578L38.469 32.6212H38.986V28.9951H38.4159V30.3039H38.4166ZM38.4166 31.8867C38.3081 32.0966 38.1376 32.2013 37.9049 32.2013C37.7208 32.2013 37.5809 32.129 37.4807 31.983C37.3812 31.837 37.3318 31.6345 37.3318 31.3756C37.3318 31.0791 37.3819 30.8586 37.4822 30.7103C37.5824 30.5628 37.7246 30.4898 37.9094 30.4898C38.1421 30.4898 38.3111 30.5921 38.4166 30.7969V31.8867Z" fill="#2F2F2F"/>
<path d="M53.6557 36.5868C53.6498 36.2617 53.5413 36.0103 53.3311 35.8312C53.1208 35.6521 52.838 35.5625 52.4834 35.5625C52.25 35.5625 52.0383 35.6039 51.849 35.6867C51.6597 35.7672 51.5101 35.8824 51.4001 36.0276C51.2901 36.1729 51.2347 36.3287 51.2347 36.4958H51.9148C51.9148 36.3761 51.9649 36.2767 52.0637 36.1992C52.1632 36.1217 52.2904 36.0818 52.4452 36.0818C52.624 36.0818 52.758 36.1285 52.8455 36.2248C52.9323 36.3196 52.9764 36.4461 52.9764 36.6034V36.8028H52.5597C52.1138 36.8028 51.7697 36.8894 51.5303 37.0632C51.2908 37.2363 51.1711 37.487 51.1711 37.8114C51.1711 38.0688 51.2669 38.2848 51.4592 38.4601C51.6522 38.6355 51.8998 38.7228 52.2043 38.7228C52.5088 38.7228 52.7827 38.6099 53.0004 38.3818C53.0213 38.5128 53.0483 38.6069 53.0782 38.6648H53.7717V38.6167C53.6946 38.4534 53.6572 38.2351 53.6572 37.9611V36.5861L53.6557 36.5868ZM52.9757 37.8106C52.9158 37.922 52.826 38.0101 52.7071 38.0755C52.5889 38.1425 52.4624 38.1749 52.3278 38.1749C52.1826 38.1749 52.0667 38.135 51.9799 38.0575C51.8931 37.9799 51.849 37.8753 51.849 37.7429C51.849 37.5803 51.9126 37.4561 52.0397 37.3673C52.1669 37.2785 52.3562 37.2341 52.6076 37.2341H52.9749V37.8099L52.9757 37.8106Z" fill="#2F2F2F"/>
<path d="M41.2731 32.5422C41.443 32.4587 41.5791 32.3397 41.6809 32.187L41.3734 31.8919C41.2095 32.1042 40.9963 32.2095 40.7345 32.2095C40.5497 32.2095 40.3941 32.1486 40.2714 32.0267C40.1494 31.9047 40.0791 31.7391 40.0611 31.5284H41.7198V31.2966C41.7198 30.8902 41.6263 30.5763 41.4377 30.3543C41.2492 30.1315 40.9821 30.0201 40.6365 30.0201C40.4187 30.0201 40.222 30.0766 40.0462 30.188C39.8689 30.3001 39.732 30.4567 39.6347 30.6576C39.5367 30.8578 39.4873 31.0859 39.4873 31.341V31.4125C39.4873 31.7933 39.6003 32.0982 39.8247 32.3277C40.0499 32.5565 40.3424 32.6709 40.703 32.6709C40.9148 32.6709 41.1048 32.6288 41.2746 32.5437L41.2731 32.5422ZM40.2549 30.6456C40.3507 30.5349 40.4771 30.48 40.6327 30.48C40.7883 30.48 40.9148 30.5282 41.0046 30.6283C41.0928 30.7276 41.1437 30.8729 41.1564 31.0655V31.1077H40.0701C40.0963 30.9105 40.1576 30.7562 40.2549 30.6456Z" fill="#2F2F2F"/>
<path d="M45.908 36.5868C45.902 36.2617 45.7935 36.0103 45.5833 35.8312C45.373 35.6521 45.0902 35.5625 44.7356 35.5625C44.5015 35.5625 44.2905 35.6039 44.1004 35.6867C43.9119 35.7672 43.7615 35.8824 43.6516 36.0276C43.5416 36.1729 43.4862 36.3287 43.4862 36.4958H44.167C44.167 36.3761 44.2164 36.2767 44.3144 36.1992C44.4139 36.1217 44.5411 36.0818 44.696 36.0818C44.8748 36.0818 45.0087 36.1285 45.0962 36.2248C45.183 36.3196 45.2272 36.4461 45.2272 36.6034V36.8028H44.8104C44.3645 36.8028 44.0211 36.8894 43.781 37.0632C43.5416 37.2363 43.4219 37.487 43.4219 37.8114C43.4219 38.0688 43.5176 38.2848 43.7099 38.4601C43.9029 38.6355 44.1506 38.7228 44.4551 38.7228C44.7596 38.7228 45.0334 38.6099 45.2511 38.3818C45.272 38.5128 45.2982 38.6069 45.3289 38.6648H46.0232V38.6167C45.9469 38.4534 45.9087 38.2351 45.9087 37.9611V36.5861L45.908 36.5868ZM45.2279 37.8106C45.1681 37.922 45.0783 38.0101 44.9593 38.0755C44.8411 38.1425 44.7147 38.1749 44.58 38.1749C44.4349 38.1749 44.3189 38.135 44.2321 38.0575C44.1453 37.9799 44.1012 37.8753 44.1012 37.7429C44.1012 37.5803 44.1655 37.4561 44.292 37.3673C44.4192 37.2785 44.6084 37.2341 44.8598 37.2341H45.2272V37.8099L45.2279 37.8106Z" fill="#2F2F2F"/>
<path d="M22.0172 32.6212V28.9951H21.4472V30.3039C21.2811 30.115 21.0634 30.0201 20.794 30.0201C20.4888 30.0201 20.2464 30.1398 20.0646 30.3784C19.8828 30.617 19.7915 30.9331 19.7915 31.3259C19.7915 31.7391 19.8843 32.0673 20.0668 32.3081C20.2516 32.549 20.4918 32.6694 20.7888 32.6694C21.0858 32.6694 21.3013 32.5655 21.4726 32.3578L21.5003 32.6212H22.0172ZM21.4472 31.8867C21.3387 32.0966 21.1681 32.2013 20.9354 32.2013C20.7521 32.2013 20.6107 32.129 20.5112 31.983C20.4117 31.837 20.3631 31.6345 20.3631 31.3756C20.3631 31.0791 20.4132 30.8586 20.5127 30.7103C20.613 30.5628 20.7551 30.4898 20.9407 30.4898C21.1733 30.4898 21.3424 30.5921 21.4472 30.7969V31.8867Z" fill="#2F2F2F"/>
<path d="M48.1328 35.5617C47.7924 35.5617 47.5119 35.6912 47.2897 35.9501V34.3395H46.6096V38.6641H47.2897V36.4867C47.4244 36.2429 47.6278 36.1202 47.9009 36.1202C48.0752 36.1202 48.2084 36.1639 48.2997 36.2519C48.3902 36.3392 48.4351 36.4875 48.4351 36.6982V38.6641H49.1159V36.6734C49.1062 35.9328 48.7778 35.561 48.1336 35.561L48.1328 35.5617Z" fill="#2F2F2F"/>
<path d="M44.8636 31.0595C44.4895 31.0595 44.2015 31.1318 44.001 31.2778C43.8004 31.423 43.7002 31.633 43.7002 31.9047C43.7002 32.1207 43.7802 32.3014 43.9411 32.4489C44.1027 32.5956 44.3099 32.6694 44.5658 32.6694C44.8217 32.6694 45.0499 32.5746 45.2317 32.3834C45.2504 32.494 45.2721 32.5731 45.2975 32.6212H45.8788V32.5806C45.8145 32.4436 45.783 32.2615 45.783 32.0312V30.8789C45.7786 30.6064 45.688 30.3957 45.5107 30.2459C45.3342 30.0947 45.097 30.0201 44.8 30.0201C44.6047 30.0201 44.4266 30.0548 44.2673 30.124C44.1094 30.1925 43.9837 30.2881 43.891 30.4108C43.7989 30.5319 43.7533 30.6629 43.7533 30.8029H44.3234C44.3234 30.702 44.3653 30.62 44.4476 30.5545C44.5314 30.4898 44.6376 30.4567 44.7671 30.4567C44.9167 30.4567 45.0289 30.4958 45.1022 30.5756C45.1755 30.6554 45.2122 30.7615 45.2122 30.8932V31.061H44.8628L44.8636 31.0595ZM45.213 31.9047C45.1628 31.9981 45.0873 32.0726 44.9878 32.1275C44.8883 32.1824 44.7828 32.2103 44.6705 32.2103C44.5478 32.2103 44.4513 32.1772 44.3788 32.1117C44.3062 32.0462 44.2688 31.9589 44.2688 31.8483C44.2688 31.7121 44.3227 31.6074 44.4296 31.5329C44.5366 31.4584 44.6945 31.4215 44.9055 31.4215H45.213V31.904V31.9047Z" fill="#2F2F2F"/>
<path d="M50.1873 34.4546C50.0638 34.4546 49.9696 34.4892 49.9022 34.5592C49.8364 34.6292 49.8027 34.718 49.8027 34.8242C49.8027 34.9303 49.8364 35.0138 49.9022 35.0831C49.9696 35.1523 50.0638 35.1869 50.1873 35.1869C50.3107 35.1869 50.405 35.1523 50.4731 35.0831C50.5397 35.0138 50.5733 34.9273 50.5733 34.8242C50.5733 34.7211 50.5397 34.6292 50.4731 34.5592C50.405 34.4892 50.3107 34.4546 50.1873 34.4546Z" fill="#2F2F2F"/>
<path d="M46.9859 28.9951H46.4158V32.6205H46.9859V28.9951Z" fill="#2F2F2F"/>
<path d="M25.7206 37.7978L25.0712 35.6197H24.3657L25.4229 38.6648H26.0139L27.0643 35.6197H26.361L25.7206 37.7978Z" fill="#2F2F2F"/>
<path d="M29.7172 35.9584C29.4621 35.6942 29.1307 35.5618 28.7222 35.5618C28.4454 35.5618 28.2015 35.6265 27.989 35.7552C27.7758 35.8839 27.6104 36.0675 27.4937 36.3069C27.3755 36.5462 27.3164 36.8149 27.3164 37.1137V37.1475C27.3164 37.6247 27.4451 38.0055 27.7017 38.293C27.9583 38.5798 28.3002 38.722 28.7282 38.722C29.008 38.722 29.2541 38.6573 29.4681 38.5279C29.6821 38.3984 29.8466 38.2148 29.9619 37.9784C30.0756 37.7414 30.1332 37.4734 30.1332 37.1731L30.1309 37.0121C30.11 36.5748 29.9716 36.2241 29.718 35.9584H29.7172ZM29.2638 37.9047C29.1359 38.0846 28.9571 38.1749 28.7282 38.1749C28.4992 38.1749 28.3189 38.0861 28.191 37.9092C28.0623 37.7308 27.9972 37.4862 27.9972 37.1724C27.9972 36.8194 28.0631 36.5545 28.1932 36.3768C28.3234 36.1985 28.5 36.1104 28.7222 36.1104C28.9444 36.1104 29.1277 36.2007 29.2579 36.3799C29.3903 36.5605 29.4554 36.8051 29.4554 37.1129C29.4554 37.4614 29.391 37.7248 29.2631 37.9054L29.2638 37.9047Z" fill="#2F2F2F"/>
<path d="M50.5255 35.6197H49.8455V38.6641H50.5255V35.6197Z" fill="#2F2F2F"/>
<path d="M23.9812 36.5868C23.9752 36.2617 23.8667 36.0103 23.6558 35.8312C23.4455 35.6521 23.1627 35.5625 22.8081 35.5625C22.5754 35.5625 22.363 35.6039 22.1737 35.6867C21.9844 35.7672 21.834 35.8824 21.724 36.0276C21.6141 36.1729 21.5594 36.3287 21.5594 36.4958H22.2395C22.2395 36.3761 22.2896 36.2767 22.3884 36.1992C22.4879 36.1217 22.6151 36.0818 22.7692 36.0818C22.948 36.0818 23.0819 36.1285 23.1695 36.2248C23.2562 36.3196 23.3004 36.4461 23.3004 36.6034V36.8028H22.8837C22.437 36.8028 22.0944 36.8894 21.855 37.0632C21.6148 37.2363 21.4958 37.487 21.4958 37.8114C21.4958 38.0688 21.5909 38.2848 21.7831 38.4601C21.9769 38.6355 22.2238 38.7228 22.5283 38.7228C22.8328 38.7228 23.1066 38.6099 23.3228 38.3818C23.3453 38.5128 23.3707 38.6069 23.4021 38.6648H24.0949V38.6167C24.0186 38.4534 23.9812 38.2351 23.9812 37.9611V36.5861V36.5868ZM23.3004 37.8106C23.2413 37.922 23.1515 38.0101 23.0333 38.0755C22.9151 38.1425 22.7886 38.1749 22.654 38.1749C22.5088 38.1749 22.3921 38.135 22.3053 38.0575C22.2186 37.9799 22.1752 37.8753 22.1752 37.7429C22.1752 37.5803 22.2388 37.4561 22.3659 37.3673C22.4931 37.2785 22.6817 37.2341 22.9338 37.2341H23.3004V37.8099V37.8106Z" fill="#2F2F2F"/>
<path d="M51.3416 16.813C52.0979 16.4901 52.6755 16.037 53.0668 15.453C53.4611 14.8644 53.6548 14.2089 53.6548 13.4743C53.6548 12.0428 53.1858 10.9636 52.2476 10.2395C51.3124 9.51625 49.9418 9.15273 48.1462 9.15273H42.6997V25.1401H48.4964C50.2762 25.1401 51.6476 24.7352 52.6052 23.9291C53.5621 23.1238 54.0386 21.9738 54.0386 20.4708C54.0386 19.5601 53.8045 18.7841 53.3346 18.1361C52.8655 17.4873 52.2019 17.0463 51.3416 16.813ZM45.4596 11.1457H48.1462C49.0911 11.1457 49.7899 11.3203 50.2358 11.6703C50.6832 12.021 50.9069 12.8444 50.9069 13.6309C50.9069 14.3474 50.6652 15.1572 50.1804 15.5478C49.6964 15.9377 49.026 16.1319 48.1687 16.1319H45.4604V11.1457H45.4596ZM50.556 22.5217C50.0682 22.9522 49.3934 23.1704 48.5255 23.1704H45.4596V17.6665H48.7575C50.4445 17.6665 51.2907 18.8075 51.2907 20.467C51.2907 21.2354 51.0446 22.0912 50.5568 22.5217H50.556Z" fill="#2F2F2F"/>
<path d="M33.9817 35.9004C33.7842 35.6754 33.5238 35.5625 33.2029 35.5625C32.8385 35.5625 32.549 35.7055 32.3328 35.9892C32.1151 36.2737 32.0073 36.6508 32.0073 37.1204C32.0073 37.6142 32.1173 38.0048 32.3365 38.2923C32.5565 38.5805 32.8438 38.7235 33.1976 38.7235C33.5515 38.7235 33.8089 38.5994 34.0124 38.3517L34.046 38.6663H34.6618V34.3417H33.9817V35.9019V35.9004ZM33.9817 37.788C33.853 38.0387 33.6495 38.1628 33.3712 38.1628C33.152 38.1628 32.9837 38.077 32.8662 37.9032C32.7472 37.7293 32.6881 37.487 32.6881 37.1776C32.6881 36.8247 32.748 36.5605 32.8677 36.3844C32.9874 36.209 33.1565 36.121 33.3772 36.121C33.6555 36.121 33.8567 36.2429 33.9817 36.4875V37.788Z" fill="#2F2F2F"/>
<path d="M32.3491 31.1664H33.725V30.6877H32.3491V29.6671H33.927V29.184H31.7566V32.6212H32.3491V31.1664Z" fill="#2F2F2F"/>
<path d="M52.591 32.6694C52.8259 32.6694 53.0324 32.6152 53.212 32.5068C53.3915 32.3977 53.5284 32.2434 53.6257 32.0455C53.7215 31.8475 53.7693 31.6225 53.7693 31.3703L53.7671 31.2356C53.7499 30.8683 53.6339 30.5748 53.4215 30.3528C53.2075 30.1308 52.9292 30.0194 52.5865 30.0194C52.3553 30.0194 52.1503 30.0736 51.9723 30.1819C51.7942 30.2896 51.6558 30.4439 51.5571 30.6441C51.4583 30.8443 51.4089 31.0708 51.4089 31.3207V31.3485C51.4089 31.7489 51.5174 32.068 51.7321 32.3081C51.9469 32.5482 52.2341 32.6686 52.5918 32.6686L52.591 32.6694ZM52.1429 30.702C52.2521 30.5537 52.4002 30.4792 52.5858 30.4792C52.7713 30.4792 52.9254 30.5553 53.0354 30.705C53.1461 30.8563 53.2007 31.0618 53.2007 31.3192C53.2007 31.6112 53.1476 31.8317 53.0399 31.9837C52.9329 32.1335 52.7825 32.2095 52.5903 32.2095C52.398 32.2095 52.2476 32.135 52.1399 31.9868C52.0321 31.8377 51.9775 31.6315 51.9775 31.3696C51.9775 31.0731 52.0336 30.8518 52.1421 30.702H52.1429Z" fill="#2F2F2F"/>
<path d="M36.428 31.2966C36.428 30.8902 36.3345 30.5763 36.146 30.3543C35.9574 30.1315 35.6904 30.0201 35.3447 30.0201C35.1277 30.0201 34.9302 30.0766 34.7544 30.188C34.5771 30.3001 34.4402 30.4567 34.3429 30.6576C34.2449 30.8578 34.1956 31.0859 34.1956 31.341V31.4125C34.1956 31.7933 34.3085 32.0982 34.533 32.3277C34.7574 32.5565 35.0507 32.6709 35.4113 32.6709C35.623 32.6709 35.8131 32.6288 35.9829 32.5437C36.1527 32.4602 36.2889 32.3413 36.3906 32.1885L36.0831 31.8934C35.9185 32.1057 35.7061 32.211 35.4442 32.211C35.2587 32.211 35.1038 32.1501 34.9804 32.0282C34.8584 31.9062 34.7888 31.7407 34.7701 31.5299H36.4288V31.2981L36.428 31.2966ZM35.8654 31.1077H34.7791C34.8053 30.9105 34.8666 30.7562 34.9639 30.6456C35.0597 30.5349 35.1861 30.48 35.3425 30.48C35.4988 30.48 35.6245 30.5282 35.7128 30.6283C35.8026 30.7276 35.8535 30.8729 35.8654 31.0655V31.1077Z" fill="#2F2F2F"/>
<path d="M30.0628 31.2966C30.0628 30.8902 29.9693 30.5763 29.78 30.3543C29.5922 30.1315 29.3251 30.0201 28.9795 30.0201C28.761 30.0201 28.5643 30.0766 28.3884 30.188C28.2111 30.3001 28.075 30.4567 27.977 30.6576C27.879 30.8578 27.8303 31.0859 27.8303 31.341V31.4125C27.8303 31.7933 27.9425 32.0982 28.167 32.3277C28.3907 32.5565 28.6847 32.6709 29.0453 32.6709C29.257 32.6709 29.4463 32.6288 29.6162 32.5437C29.786 32.4602 29.9221 32.3413 30.0239 32.1885L29.7164 31.8934C29.5526 32.1057 29.3393 32.211 29.0782 32.211C28.8919 32.211 28.7378 32.1501 28.6144 32.0282C28.4909 31.9062 28.4214 31.7407 28.4042 31.5299H30.0628V31.2981V31.2966ZM29.5002 31.1077H28.4131C28.4401 30.9105 28.5022 30.7562 28.5979 30.6456C28.6937 30.5349 28.8201 30.48 28.9765 30.48C29.1328 30.48 29.2585 30.5282 29.3476 30.6283C29.4358 30.7276 29.4875 30.8729 29.5002 31.0655V31.1077Z" fill="#2F2F2F"/>
<path d="M36.5486 9.59603C36.5104 10.7603 36.8157 11.318 37.4867 12.0308C38.4429 13.0438 39.1619 13.2049 38.2693 14.0298C37.9745 14.303 37.6858 14.4723 38.0456 14.8057C38.3688 15.1038 38.3591 15.3996 38.0628 15.7465C38.291 15.8286 38.5027 16.4555 37.991 16.7272C37.7613 16.8491 37.7441 16.8694 37.8025 17.1246C37.8661 17.4083 37.9042 17.8516 37.9603 18.2994C38.0808 19.2508 36.9107 19.3599 36.173 19.4833C34.8181 19.7121 33.1206 19.7234 32.2849 19.5533C32.7158 19.7339 33.4355 19.8529 33.841 19.9176C33.9675 19.9387 34.0729 19.9793 34.1223 20.0162C34.3333 20.1757 34.3333 20.5739 34.3647 20.808C34.875 24.5335 38.0516 27.4025 41.8948 27.4025C42.4911 27.4025 43.0717 27.3333 43.6283 27.203C40.1891 27.276 37.1224 25.0136 36.1655 21.6885C36.0757 21.3784 35.8887 20.5686 35.9343 20.2879C35.9598 20.1306 36.069 20.041 36.3159 20.0358C37.0655 20.0192 38.196 20.1012 38.9224 19.9259C39.7043 19.737 39.8195 19.177 39.5255 18.0059C39.4402 17.6672 39.6871 17.7749 39.8995 17.7094C40.5257 17.5152 40.7719 16.819 40.0604 16.253C40.4898 15.818 40.611 15.1301 40.0484 14.7515C39.7117 14.5242 39.7873 14.5107 39.9833 14.3361C40.3073 14.0463 40.6626 13.4879 40.6634 13.0596C40.6656 12.024 39.2614 11.7756 38.6494 11.3128C38.2005 10.9741 38.0314 10.457 38.184 9.54635C38.698 6.48089 36.7236 4.51277 33.8762 3.73304C31.331 3.03536 28.4955 3.69165 26.4965 5.70267C26.0745 6.12641 25.7131 6.58852 25.4109 7.07773C25.4483 7.03859 25.485 7.00021 25.5224 6.96258C27.6411 4.83113 30.7003 4.21999 33.357 5.13143C35.6059 5.90287 36.8112 7.13794 36.5478 9.59528L36.5486 9.59603Z" fill="#2F2F2F"/>
</svg>
